<svg version="1.1" id="Layer_1" xmlns="http://www.w3.org/2000/svg" xmlns:xlink="http://www.w3.org/1999/xlink" x="0px" y="0px"
	 width="100%" viewBox="0 0 677 369" enable-background="new 0 0 677 369" xml:space="preserve">
<path fill="#000000" opacity="1.000000" stroke="none" 
	d="
M392.000000,370.000000 
	C261.364410,370.000000 131.228836,370.000000 1.046633,370.000000 
	C1.046633,247.060486 1.046633,124.120941 1.046633,1.090698 
	C226.552277,1.090698 452.104584,1.090698 677.828491,1.090698 
	C677.828491,123.999809 677.828491,246.999878 677.828491,370.000000 
	C582.787537,370.000000 487.643768,370.000000 392.000000,370.000000 
M273.741608,289.342163 
	C274.197906,289.774994 274.654205,290.207825 275.735901,290.966553 
	C277.828522,290.631653 279.921112,290.296753 282.260010,290.492188 
	C283.174316,290.663574 284.088593,290.834991 285.661957,290.916199 
	C286.452728,290.579803 287.243500,290.243378 288.407379,290.453003 
	C289.937927,290.634583 291.468475,290.816162 293.617889,290.918274 
	C294.542267,290.712036 295.466614,290.505768 297.087616,290.847534 
	C300.041077,290.935791 302.994568,291.024017 305.940887,291.932526 
	C306.824890,293.057159 307.518921,294.804321 308.641602,295.146942 
	C310.007629,295.563873 312.249939,295.307983 313.154205,294.394165 
	C313.985687,293.553925 313.650970,291.453186 313.626404,289.910980 
	C313.610901,288.937347 313.221527,287.969635 313.689606,286.666748 
	C315.674957,288.339966 315.869812,292.577179 320.609680,290.998047 
	C321.480896,290.665771 322.352142,290.333527 323.867157,290.802155 
	C324.882812,290.790344 325.898438,290.778503 327.522522,290.907318 
	C328.353790,290.867889 329.185089,290.828430 330.769073,291.008789 
	C331.707184,290.876190 332.645294,290.743591 333.878204,290.569336 
	C333.495605,289.498627 333.117889,288.794891 332.997314,288.049561 
	C331.746399,280.319366 331.545227,280.448639 323.340027,281.985016 
	C320.422729,282.531281 317.163971,281.253876 313.195160,280.661560 
	C307.276825,280.676666 304.942719,283.657410 305.951996,289.410004 
	C305.979523,289.566772 305.953796,289.732910 305.164673,289.820587 
	C304.550934,287.031189 303.937225,284.241821 303.323486,281.452423 
	C302.890930,281.325470 302.458405,281.198517 302.025879,281.071564 
	C301.723602,282.366760 301.418945,283.661438 301.119690,284.957336 
	C300.708221,286.739014 302.718842,290.409546 298.419037,288.127625 
	C300.005035,280.621185 299.332733,277.466339 296.519257,277.616058 
	C296.519257,281.446991 296.519257,285.255859 296.519257,289.060486 
	C295.251495,289.152771 294.106445,289.236176 292.311371,289.197418 
	C291.446869,288.574341 290.582336,287.951263 290.231384,287.698334 
	C292.345245,286.382477 294.049713,285.321503 295.754150,284.260498 
	C293.914703,283.310791 291.431366,281.092529 290.352081,281.640411 
	C286.546814,283.571960 284.936890,280.900726 282.652069,278.745514 
	C281.693939,280.302917 280.853363,281.669189 279.210236,282.959137 
	C277.128418,282.685242 275.046631,282.411346 272.386627,282.002197 
	C272.013977,282.159698 271.641327,282.317200 271.268677,282.474701 
	C271.457458,282.681152 271.646240,282.887604 271.910980,283.880524 
	C271.976837,284.927429 272.042694,285.974304 272.002869,287.671906 
	C272.172302,288.342560 272.341705,289.013214 272.511139,289.683868 
	C272.724884,289.513733 272.938660,289.343597 273.741608,289.342163 
M228.043060,283.809448 
	C227.683273,283.534393 227.323486,283.259308 226.751038,282.237793 
	C220.499939,281.225311 222.418472,285.866150 221.332535,288.633789 
	C221.160095,286.213745 220.987671,283.793701 220.773254,280.784210 
	C218.556534,281.304108 216.742432,281.729553 214.165466,282.043243 
	C213.580139,282.508545 212.531158,282.941620 212.496185,283.445129 
	C212.390259,284.970306 212.677216,286.522705 212.811081,288.064514 
	C212.356873,288.097595 211.902664,288.130707 211.448441,288.163818 
	C211.218597,286.172607 210.988754,284.181396 210.758911,282.190186 
	C208.081436,281.279144 206.627533,278.888123 204.570480,278.126831 
	C198.712708,275.958893 193.550537,280.760986 195.554611,286.689148 
	C196.278366,288.830048 199.259918,290.792480 201.627838,291.574066 
	C203.054611,292.044983 205.283813,290.084839 207.152420,289.217133 
	C206.901749,288.697784 206.651077,288.178406 206.400406,287.659058 
	C205.352509,287.956879 204.261749,288.595398 203.267059,288.470276 
	C201.881561,288.295929 199.518784,287.703766 199.418716,287.020355 
	C199.108429,284.901459 199.670090,282.654907 199.893341,280.457886 
	C201.351456,280.900818 202.900467,281.159790 204.248352,281.825836 
	C206.882050,283.127197 208.337479,284.939178 208.160675,288.357910 
	C208.037262,290.744171 209.863617,292.575317 212.970642,291.327667 
	C214.153229,290.852753 215.548935,290.908661 217.677383,290.897766 
	C219.123993,290.225342 220.570602,289.552917 222.669449,289.132385 
	C224.316437,289.881012 225.963409,290.629639 227.610397,291.378265 
	C227.699890,290.713806 227.789398,290.049347 227.792297,289.350037 
	C227.792297,289.350037 227.937210,289.565247 228.441238,290.361511 
	C231.303558,290.461609 234.165878,290.561707 237.763519,290.776550 
	C240.511108,290.854401 243.258713,290.932220 246.580139,290.939545 
	C246.752014,290.852386 246.923889,290.765228 247.696243,290.783508 
	C248.099747,290.750336 248.503250,290.717194 249.604691,290.894287 
	C250.534592,290.821411 251.472397,290.801758 252.392868,290.665253 
	C254.728455,290.318939 257.477234,290.527710 259.228668,289.313843 
	C260.272461,288.590424 260.583832,284.991821 259.708649,283.784576 
	C258.647247,282.320435 255.933655,281.298248 254.036392,281.440277 
	C252.576920,281.549530 251.274323,283.754486 249.838196,284.156067 
	C249.826431,282.680237 250.145874,281.093567 249.700424,279.762909 
	C249.329208,278.654022 248.060654,277.845551 246.643127,276.313446 
	C246.312637,278.959320 246.173645,280.072205 245.506485,281.075653 
	C245.330521,281.112579 245.154572,281.149475 244.274246,281.033630 
	C243.184280,282.134888 242.199142,283.392822 240.937210,284.237000 
	C240.582138,284.474548 239.414764,283.497803 238.359207,282.548187 
	C236.267349,282.317017 234.175491,282.085846 233.088394,281.965729 
	C232.205124,284.524811 231.605881,286.261017 230.564346,287.550049 
	C229.930313,286.562317 229.296265,285.574554 228.518463,284.324646 
	C228.518463,284.324646 228.235168,284.229156 228.043060,283.809448 
M459.400024,277.012970 
	C459.210480,277.735382 459.020966,278.457825 459.041595,280.044434 
	C459.019257,283.027344 458.996918,286.010284 458.160889,288.971466 
	C456.949982,287.780731 455.739105,286.589966 454.635193,285.504486 
	C454.465637,286.153534 454.110291,287.513672 453.754974,288.873779 
	C453.553436,288.842194 453.351929,288.810638 453.150391,288.779053 
	C452.977142,286.727386 452.803925,284.675720 452.632446,282.644989 
	C450.531403,282.799225 448.747894,282.930145 446.451416,282.722778 
	C444.024414,282.415649 441.597412,282.108490 439.356079,281.824860 
	C439.356079,284.662415 439.356079,286.780579 439.356079,289.698029 
	C436.203217,286.963104 440.466187,279.714447 432.491394,281.377502 
	C431.967102,281.537750 431.442841,281.698029 430.739532,281.050751 
	C429.250610,274.130402 424.310516,279.959351 421.627319,277.906769 
	C421.627319,282.495392 421.627319,286.475555 421.627319,290.702942 
	C423.283844,290.702942 424.889160,290.702942 426.496002,290.702942 
	C425.952637,289.181458 425.415955,287.678711 424.586823,285.357056 
	C426.561401,286.089233 427.534058,286.449921 427.629395,286.485260 
	C428.936493,284.667175 429.991180,283.200104 431.091156,282.490875 
	C427.824188,285.784180 433.943573,283.970978 432.244080,286.029327 
	C431.550201,287.296906 430.856323,288.564484 430.162476,289.832092 
	C431.511658,290.291351 432.851929,291.100037 434.211914,291.134521 
	C436.768127,291.199402 439.335724,290.817200 441.824768,290.626526 
	C441.505737,288.487213 441.206085,286.477997 440.835876,283.995544 
	C442.587860,284.128876 443.793396,284.220642 445.236725,284.330505 
	C444.991821,286.102478 444.520508,287.579193 444.683502,288.982239 
	C444.801025,289.994141 445.762817,290.907990 446.348083,291.865570 
	C446.712006,290.932648 447.075897,289.999756 447.662842,288.613464 
	C447.547455,288.311646 447.432037,288.009796 447.337067,287.081665 
	C447.288483,286.457458 447.239868,285.833282 447.625610,284.663727 
	C452.736908,285.231140 448.464722,288.776917 449.563019,290.724854 
	C453.055817,290.724854 456.593536,290.724854 461.161987,290.834167 
	C461.823456,290.681915 462.484955,290.529663 463.092133,290.313995 
	C463.092133,290.313995 463.088745,290.488007 463.845398,290.879272 
	C469.380951,290.879272 474.916504,290.879272 480.849792,290.879272 
	C479.428619,287.063843 479.113403,283.877716 483.929901,282.300629 
	C482.135986,281.956787 480.342072,281.612976 478.169617,281.196564 
	C477.712341,284.081238 477.325989,286.518585 476.939606,288.955933 
	C475.991638,287.675995 476.243683,286.182220 475.632324,285.262177 
	C474.618439,283.736328 473.178009,281.700012 471.682465,281.480865 
	C469.624359,281.179291 467.486053,282.342682 468.768372,285.488739 
	C468.969727,285.982788 467.641388,287.100342 466.990448,287.076874 
	C466.990448,285.183533 466.990448,283.290222 466.990448,280.183594 
	C464.703186,281.443481 463.388611,282.167603 462.019836,282.083740 
	C461.363678,280.439209 460.707489,278.794678 459.400024,277.012970 
M391.542938,290.738281 
	C392.353577,290.510498 393.164185,290.282745 394.277740,290.605194 
	C395.522766,290.751343 396.767792,290.897491 398.930786,291.054596 
	C400.506653,291.034149 402.082672,290.988525 403.658325,290.999084 
	C406.061737,291.015228 408.773895,291.801483 410.799164,290.945587 
	C414.252747,289.486053 415.406647,286.368225 414.097229,283.706024 
	C411.128571,282.715729 407.744720,280.221924 406.680939,285.931946 
	C405.165253,277.617035 405.142761,277.566132 402.848206,277.409119 
	C402.962494,279.387634 403.170258,281.322723 403.158752,283.256500 
	C403.147430,285.160919 402.913910,287.064056 402.777893,288.967743 
	C402.203979,288.947266 401.630096,288.926758 401.056213,288.906250 
	C401.056213,287.217041 401.249268,285.494049 400.962494,283.855011 
	C400.845551,283.186737 399.688019,282.700531 398.333069,282.037903 
	C397.923004,282.213745 397.512909,282.389587 397.102844,282.565430 
	C397.381012,283.051788 397.659180,283.538177 397.987000,284.828644 
	C397.972717,286.170593 397.958435,287.512512 397.154327,288.839508 
	C396.569611,286.420746 395.984863,284.001953 395.403168,281.582428 
	C384.164581,282.406281 384.164581,282.406281 383.351746,289.016663 
	C383.115631,279.798218 380.051147,280.234985 371.051849,282.501221 
	C374.024994,290.923645 374.024994,290.923645 377.661896,290.411407 
	C377.882568,288.249420 378.103271,286.087433 378.323944,283.925446 
	C378.783325,283.970520 379.242706,284.015625 379.702087,284.060699 
	C379.775604,285.651642 379.849121,287.242554 379.506378,289.219025 
	C379.680908,289.716644 379.855469,290.214264 380.812500,290.897461 
	C381.867126,290.408844 382.921783,289.920258 384.618591,289.877655 
	C386.763641,290.131073 388.908691,290.384460 391.542938,290.738281 
M308.030518,202.576965 
	C308.030518,202.576965 308.482300,202.614731 308.482300,202.614731 
	C308.482300,202.614731 308.865143,202.371887 309.659149,202.651505 
	C315.438965,203.896973 321.267120,204.954254 326.989594,206.423050 
	C344.409943,210.894363 359.171692,206.018478 372.612122,193.722931 
	C373.530884,192.800919 374.431946,191.860413 375.371521,190.960144 
	C379.206665,187.285400 383.053528,183.622940 387.763397,179.810776 
	C390.654633,179.698013 390.479401,181.647324 390.111206,183.506378 
	C389.218628,188.013077 387.723206,192.461655 387.398804,197.000000 
	C387.144623,200.556396 384.710693,204.626480 388.873505,208.926270 
	C389.778625,206.799759 390.624054,205.471405 390.906342,204.032578 
	C391.941559,198.756134 392.947479,193.464447 393.672729,188.138809 
	C394.908661,179.062943 398.264313,171.131134 404.095184,163.892578 
	C408.096313,158.925446 409.876556,152.817657 406.045776,146.477432 
	C400.296204,136.961411 398.844452,127.173836 401.349670,115.952477 
	C404.595184,101.415169 396.442322,88.451668 382.469055,83.052322 
	C371.580109,78.844788 361.780884,81.075691 353.712311,89.312012 
	C350.960876,92.120651 348.696808,92.437866 345.534332,90.887947 
	C343.505646,89.893715 341.252808,89.286438 339.364136,88.089577 
	C332.353180,83.646667 324.991272,81.804550 316.762238,83.999596 
	C315.471191,84.343987 313.607452,83.940926 312.459686,83.192009 
	C305.859314,78.885292 298.785706,79.070587 292.799469,83.964218 
	C287.294159,88.464714 283.393433,98.434685 287.062164,103.433105 
	C291.459137,109.423737 292.274872,115.783119 293.357910,122.497643 
	C293.788452,125.166603 295.308746,127.659790 296.595764,130.862274 
	C297.143707,131.580215 297.691620,132.298141 298.209686,133.500732 
	C298.209686,133.500732 298.590820,133.801071 298.590820,133.801071 
	C298.590820,133.801071 299.045135,133.630539 299.340881,134.280029 
	C301.299164,135.895004 303.257416,137.509979 305.841187,139.640808 
	C302.992523,140.576111 300.743774,141.990555 298.538116,141.926270 
	C286.386200,141.572113 280.531464,148.913879 283.708557,160.673462 
	C284.235474,162.623795 284.277527,164.987747 283.689117,166.897232 
	C282.509644,170.724731 279.733246,174.286758 279.416382,178.107681 
	C278.687225,186.900360 278.959412,195.783203 279.048737,204.627197 
	C279.059265,205.667999 280.467987,206.694687 281.228516,207.727905 
	C281.920563,206.739029 283.062042,205.818054 283.223572,204.749008 
	C283.795349,200.965347 284.032074,197.131073 284.358917,193.703262 
	C292.132446,196.530945 299.945892,199.373138 307.767578,202.165741 
	C307.767578,202.165741 307.776825,202.201096 308.030518,202.576965 
M294.650177,221.248901 
	C293.154846,221.259125 291.655914,221.340759 290.164978,221.264633 
	C287.123444,221.109314 286.172882,222.533295 286.201019,225.495148 
	C286.322876,238.306473 286.364868,251.120911 286.197205,263.931091 
	C286.149872,267.547546 287.869324,268.152985 290.801971,267.898468 
	C293.461151,267.667694 296.861176,268.763458 296.665649,264.068573 
	C296.537811,260.998260 296.641510,257.918365 296.641510,254.871948 
	C305.761871,254.775543 307.879578,255.253983 309.787659,258.177124 
	C311.303619,260.499512 312.440674,263.072113 313.992096,265.367249 
	C314.700348,266.414917 315.931885,267.642456 317.047729,267.776611 
	C319.889740,268.118347 322.800201,267.890350 326.723877,267.890350 
	C322.963837,262.087372 319.825134,257.243286 316.551971,252.191711 
	C324.202911,248.508469 325.610382,242.169617 324.805603,234.941650 
	C324.079041,228.416168 319.855682,224.227783 313.982697,222.882401 
	C308.051880,221.523758 301.746643,221.799484 294.650177,221.248901 
M454.890503,237.533081 
	C452.884796,233.017960 450.878754,228.502975 448.873383,223.987701 
	C447.217377,220.259079 443.840973,220.425949 440.561401,220.235962 
	C437.330353,220.048798 435.914490,221.850967 434.929077,224.621170 
	C433.674835,228.147064 432.197876,231.600555 430.679932,235.024536 
	C426.416687,244.640869 422.026947,254.201813 417.862518,263.860229 
	C417.435944,264.849548 417.751190,267.018799 418.475922,267.496155 
	C421.675690,269.603638 427.725922,267.389648 428.967590,263.779633 
	C430.416931,259.565735 432.620239,257.070557 437.655640,257.834351 
	C441.075989,258.353210 444.663116,258.226898 448.127014,257.889526 
	C452.415253,257.471893 454.560669,258.964813 455.228119,263.328400 
	C455.796326,267.043060 457.989655,269.060455 462.191681,267.992096 
	C463.893585,267.559387 465.759094,267.770264 469.140717,267.615479 
	C464.172943,257.305481 459.591278,247.796844 454.890503,237.533081 
M272.174896,267.873291 
	C275.847992,268.392212 277.188141,266.889740 277.105713,263.126404 
	C277.024811,259.434418 275.055786,259.232483 272.249634,259.271881 
	C265.164246,259.371307 258.076508,259.304840 250.791611,259.304840 
	C250.791611,257.329376 250.900009,256.005096 250.772095,254.704010 
	C250.315460,250.059067 251.824966,248.075363 256.968445,248.665451 
	C262.126465,249.257217 267.405365,248.795486 272.582581,248.795486 
	C272.582581,245.429962 272.582581,242.987961 272.582581,240.075562 
	C265.300842,240.075562 258.226898,240.075562 251.202377,240.075562 
	C251.202377,236.393051 251.202377,233.202576 251.202377,230.118683 
	C259.662201,230.118683 267.718445,230.118683 275.703247,230.118683 
	C276.448334,221.121536 276.449066,221.190689 268.639191,221.274307 
	C261.006775,221.356049 253.371445,221.351639 245.739822,221.231003 
	C242.685211,221.182724 241.187836,222.018753 241.225693,225.452789 
	C241.366959,238.265244 241.338654,251.080933 241.218109,263.893921 
	C241.189545,266.929993 242.232193,267.979370 245.278549,267.926788 
	C253.929565,267.777405 262.584961,267.882629 272.174896,267.873291 
M354.512329,259.331207 
	C351.418060,259.331207 348.323761,259.331207 345.308838,259.331207 
	C345.308838,255.372833 345.308838,251.996582 345.308838,248.341644 
	C352.707458,248.341644 359.747253,248.341644 366.843384,248.341644 
	C366.843384,245.367569 366.843384,242.914230 366.843384,239.935394 
	C359.516205,239.935394 352.307281,239.935394 345.218262,239.935394 
	C345.218262,236.315308 345.218262,233.225769 345.218262,229.659744 
	C353.543823,229.659744 361.604584,229.659744 369.754791,229.659744 
	C369.560486,225.647598 371.398163,221.040359 365.044342,221.093597 
	C356.315735,221.166763 347.586487,221.326279 338.858887,221.261841 
	C335.778412,221.239120 334.904358,222.416397 334.943207,225.407745 
	C335.092377,236.889496 335.005463,248.374329 335.006531,259.858002 
	C335.006775,262.447937 335.006561,265.037872 335.006561,267.555054 
	C347.280853,267.555054 358.839630,267.555054 370.328339,267.555054 
	C370.328339,264.666656 370.328339,262.116821 370.328339,259.329407 
	C365.125702,259.329407 360.314819,259.329407 354.512329,259.331207 
M410.346863,224.133682 
	C403.944061,220.301849 396.822845,220.862991 389.999756,221.629745 
	C383.462189,222.364410 378.486237,228.177094 378.076752,233.742172 
	C377.598419,240.242599 379.960632,243.733429 387.680389,246.852356 
	C391.242767,248.291656 395.308350,248.559784 398.753082,250.189087 
	C400.922821,251.215332 403.659851,253.671005 403.828156,255.679398 
	C404.076477,258.642365 401.041534,259.243347 398.027283,259.428833 
	C391.650208,259.821289 385.779724,258.752350 380.478638,254.871796 
	C378.889099,257.425079 377.558716,259.562103 376.232300,261.692780 
	C385.993347,269.136810 399.662231,270.230865 408.618469,264.811371 
	C412.766571,262.301300 414.618500,258.524811 414.468506,254.373276 
	C414.287384,249.359161 412.195923,244.766205 406.564056,243.089218 
	C401.433075,241.561371 396.252502,240.152420 391.246368,238.282501 
	C389.781891,237.735474 387.695221,235.540054 387.913788,234.543076 
	C388.283447,232.857086 390.018951,230.635818 391.608002,230.200195 
	C397.636963,228.547455 403.393158,230.194565 409.871796,233.615479 
	C410.264801,230.267319 410.595520,227.450012 410.346863,224.133682 
M218.927185,261.369904 
	C218.927155,252.228577 218.926682,243.087265 218.927307,233.945938 
	C218.927505,230.974548 219.338272,229.338074 223.290176,230.444321 
	C226.525024,231.349823 230.215225,230.628723 233.682266,230.628723 
	C233.682266,227.063171 233.682266,224.169693 233.682266,221.483719 
	C220.694504,221.483719 207.989319,221.483719 194.969223,221.483719 
	C194.969223,224.484894 194.969223,227.160873 194.969223,230.162521 
	C200.027679,230.162521 204.741898,230.162521 209.921585,230.162521 
	C209.921585,242.875320 209.921585,255.262619 209.921585,267.559937 
	C213.145493,267.559937 215.885010,267.559937 218.926788,267.559937 
	C218.926788,265.607697 218.926788,263.968658 218.927185,261.369904 
M484.747101,264.983398 
	C484.752045,262.655701 484.768250,260.327972 484.760010,258.000305 
	C484.721649,247.177475 484.739868,236.353836 484.600098,225.532288 
	C484.550079,221.657455 481.518494,219.955795 475.932800,220.218048 
	C472.063049,220.399704 473.159821,223.315552 473.144897,225.394348 
	C473.057587,237.556488 473.019531,249.720322 473.157440,261.881409 
	C473.179443,263.821869 474.136047,267.399506 474.724701,267.412933 
	C478.040924,267.488678 481.960602,269.915100 484.747101,264.983398 
M281.323486,123.427742 
	C280.996735,123.392662 280.417358,123.249504 280.379486,123.338013 
	C278.559143,127.593231 275.094849,130.171524 271.278992,132.418762 
	C271.182953,132.475327 271.375641,133.022186 271.433685,133.340378 
	C271.780029,133.039108 272.126373,132.737854 272.472717,132.436584 
	C275.321075,135.492401 278.169403,138.548233 280.968811,141.551529 
	C281.866180,139.567642 282.368500,137.130936 283.825165,135.605667 
	C285.313751,134.046967 287.738770,133.382568 290.352203,132.013123 
	C286.495972,129.693771 281.217041,129.779160 281.323486,123.427742 
M348.187988,66.281204 
	C347.585693,66.372993 346.677887,66.244598 346.428467,66.590698 
	C343.995850,69.966034 341.673279,73.420677 339.910706,75.990555 
	C342.188324,78.527695 344.898773,81.546936 348.018585,85.022202 
	C350.552887,82.260841 350.362274,75.808311 357.275604,76.304108 
	C352.142700,74.537781 349.414337,71.528313 348.187988,66.281204 
M406.990204,192.434692 
	C407.076691,193.086594 407.163177,193.738495 407.229279,194.236572 
	C410.522522,190.944229 413.861633,187.606018 417.603180,183.865540 
	C412.194427,183.844711 409.596130,180.114914 408.625061,175.502014 
	C405.815826,178.937042 403.369507,181.928314 400.862091,184.994278 
	C402.346741,186.778549 404.447266,189.303009 406.990204,192.434692 
M343.998108,291.362335 
	C345.620270,290.807861 347.242432,290.253357 348.864594,289.698883 
	C348.705658,289.334259 348.546692,288.969635 348.387756,288.605011 
	C346.886505,288.444183 345.385254,288.283356 343.002319,288.028046 
	C345.894440,286.615021 347.620453,285.771729 349.346466,284.928467 
	C348.618347,283.794678 347.964630,281.766388 347.147858,281.698456 
	C344.895081,281.511047 342.574097,282.143677 340.922607,282.365631 
	C339.624847,281.401764 337.785095,280.035339 334.928406,277.913635 
	C334.928406,282.029755 334.768890,284.978760 335.000732,287.896698 
	C335.105103,289.210968 335.990173,290.463257 336.521027,291.743683 
	C337.919891,291.015137 339.318756,290.286621 340.902893,289.461578 
	C341.468994,289.807465 342.430115,290.394714 343.998108,291.362335 
M415.281769,130.940521 
	C416.139099,130.478928 416.996399,130.017334 417.628845,129.676819 
	C415.185303,127.498413 412.672577,125.258308 410.456421,123.282623 
	C408.613037,125.363838 406.648651,127.581673 405.046387,129.390671 
	C406.924530,131.705902 408.705109,133.900848 410.622894,136.264923 
	C411.884674,134.576614 413.209900,132.803391 415.281769,130.940521 
M365.001617,278.838928 
	C364.701630,281.127625 364.401642,283.416290 364.101654,285.704987 
	C363.764313,285.710876 363.426971,285.716766 363.089630,285.722626 
	C362.365967,283.234985 361.642303,280.747345 360.882568,278.135590 
	C359.638062,278.135590 358.159821,278.135590 356.137817,278.135590 
	C360.343445,281.693481 358.509247,288.474640 364.251160,291.336975 
	C365.711578,286.806641 366.975067,282.887146 368.374390,278.546204 
	C367.492645,278.419067 366.445526,278.268097 365.001617,278.838928 
M266.070831,284.393250 
	C266.070831,286.486694 266.070831,288.580170 266.070831,290.673615 
	C266.492065,290.740692 266.913300,290.807800 267.334534,290.874878 
	C268.118683,286.750641 268.902802,282.626404 269.779022,278.017822 
	C268.147888,278.112427 266.674194,278.197876 265.397491,278.271912 
	C265.670685,280.414185 265.870331,281.980103 266.070831,284.393250 
M283.530060,112.471771 
	C281.958038,111.951988 280.386047,111.432198 278.814056,110.912407 
	C279.028809,112.198029 278.805481,113.877426 279.540619,114.695290 
	C281.727142,117.127853 282.423553,114.789627 283.530060,112.471771 
z"/>
<path fill="#E1DFD1" opacity="1.000000" stroke="none" 
	d="
M296.332916,130.233002 
	C295.308746,127.659790 293.788452,125.166603 293.357910,122.497643 
	C292.274872,115.783119 291.459137,109.423737 287.062164,103.433105 
	C283.393433,98.434685 287.294159,88.464714 292.799469,83.964218 
	C298.785706,79.070587 305.859314,78.885292 312.459686,83.192009 
	C313.607452,83.940926 315.471191,84.343987 316.762238,83.999596 
	C324.991272,81.804550 332.353180,83.646667 339.364136,88.089577 
	C341.252808,89.286438 343.505646,89.893715 345.534332,90.887947 
	C348.696808,92.437866 350.960876,92.120651 353.712311,89.312012 
	C361.780884,81.075691 371.580109,78.844788 382.469055,83.052322 
	C396.442322,88.451668 404.595184,101.415169 401.349670,115.952477 
	C398.844452,127.173836 400.296204,136.961411 406.045776,146.477432 
	C409.876556,152.817657 408.096313,158.925446 404.095184,163.892578 
	C398.264313,171.131134 394.908661,179.062943 393.672729,188.138809 
	C392.947479,193.464447 391.941559,198.756134 390.906342,204.032578 
	C390.624054,205.471405 389.778625,206.799759 388.873505,208.926270 
	C384.710693,204.626480 387.144623,200.556396 387.398804,197.000000 
	C387.723206,192.461655 389.218628,188.013077 390.111206,183.506378 
	C390.479401,181.647324 390.654633,179.698013 387.085144,179.698181 
	C385.278900,178.726395 384.150909,177.867218 383.211761,176.702881 
	C387.102264,174.770859 390.803925,173.144012 394.724579,171.420914 
	C393.140625,167.808167 391.883301,164.940353 390.611908,162.040512 
	C387.515137,163.397018 384.475677,166.093857 382.201874,160.626068 
	C381.716248,160.828339 381.230621,161.030609 380.744995,161.232880 
	C380.391022,165.158524 380.037048,169.084167 379.400696,172.779373 
	C377.170288,170.952957 379.143921,166.243744 374.691528,166.435410 
	C376.685913,162.655945 378.270294,159.040314 380.449799,155.828537 
	C381.547791,154.210510 383.683044,152.459488 385.427887,152.373993 
	C386.904297,152.301636 388.493988,154.540878 390.855225,156.406235 
	C390.292236,154.350967 390.324066,152.438660 389.384369,151.446259 
	C387.226746,149.167603 384.803284,146.905273 382.036285,145.575821 
	C381.152649,145.151260 378.902710,147.769409 377.182892,148.843079 
	C374.000000,150.830109 370.936981,153.200394 367.484009,154.524109 
	C360.096161,157.356277 358.082397,155.782333 357.936768,147.970734 
	C357.925079,147.345947 357.752777,146.724152 357.449249,144.787857 
	C350.759857,147.602066 344.559052,150.210724 338.045502,152.950974 
	C339.457764,155.821320 340.914246,158.781494 342.505096,162.014771 
	C344.055023,160.208862 345.207062,158.586502 346.655914,157.297943 
	C347.368134,156.664536 348.630280,156.649475 349.643555,156.354584 
	C349.698181,157.376266 350.100403,158.546814 349.739166,159.390427 
	C348.832062,161.508850 347.153168,163.368561 346.588379,165.541183 
	C346.045349,167.630096 346.043030,170.160736 346.791138,172.120010 
	C347.051361,172.801468 350.266327,172.423691 352.130219,172.400146 
	C353.421234,172.383820 354.709473,172.145691 356.052795,172.344925 
	C357.444275,173.471786 358.781891,174.260376 359.893433,175.389206 
	C346.797882,179.245453 335.980469,175.742310 326.081390,167.000183 
	C321.217072,162.704361 316.222321,157.523621 308.512268,158.406586 
	C307.927124,158.473587 306.636841,157.257751 306.666107,156.689285 
	C306.711670,155.805405 307.644409,154.206940 308.139862,154.229935 
	C311.348358,154.378860 314.540283,154.885193 317.896973,155.550095 
	C318.651001,155.824814 319.245758,155.823807 319.840485,155.822800 
	C319.522095,155.354614 319.203674,154.886429 318.657654,154.157013 
	C315.613312,150.598984 312.796631,147.302200 310.395325,144.004410 
	C311.918243,143.987167 313.025787,143.970932 314.436340,144.092087 
	C319.355499,146.623322 320.788879,155.982635 328.192596,150.644653 
	C328.551819,152.317566 328.868744,153.793594 329.437500,156.442337 
	C331.579376,153.525528 332.796539,151.868027 333.724579,150.604218 
	C332.667755,148.699890 331.827759,147.186310 331.006287,145.706116 
	C335.424438,145.947174 339.857300,147.473022 342.684875,145.972946 
	C345.374603,144.545990 346.387146,139.957626 348.103638,136.787170 
	C348.070221,136.815079 348.022308,136.887833 348.408203,136.948425 
	C352.008759,132.822479 350.968628,128.232300 349.784027,123.764694 
	C349.595917,123.055130 347.672699,122.805626 346.551666,122.343422 
	C348.419128,126.659096 350.625519,129.791412 346.432404,132.868500 
	C343.748810,134.837845 341.343750,134.055267 339.373383,130.849609 
	C341.075104,130.503021 342.709778,130.170090 344.932129,129.717468 
	C343.709961,127.217842 342.580353,125.287193 341.823914,123.220001 
	C341.361145,121.955269 341.471283,120.480873 341.324097,119.100632 
	C342.489380,119.062515 343.671387,119.134399 344.815948,118.960274 
	C346.498260,118.704338 348.153839,118.272728 349.820801,117.915955 
	C349.785339,117.501625 349.749908,117.087296 349.714447,116.672958 
	C347.969604,116.251831 346.224762,115.830704 344.479919,115.409569 
	C344.411224,115.058617 344.342529,114.707664 344.273865,114.356712 
	C345.840271,113.642738 347.406708,112.928772 349.541718,111.955635 
	C346.908966,108.721138 344.393494,105.630737 342.185059,102.917534 
	C337.086731,106.942177 332.577820,110.501556 327.744232,114.052994 
	C326.913574,114.329620 326.407532,114.614197 325.488098,114.940948 
	C317.820923,114.477486 320.135712,121.674675 316.397552,125.225090 
	C315.288696,124.553398 313.784943,123.650887 312.289612,122.734642 
	C310.321350,121.528603 308.368835,120.344391 307.490875,123.973038 
	C305.900940,124.296860 304.589417,124.650330 303.194458,124.625946 
	C304.203125,116.539581 308.798492,116.087700 314.814575,118.905983 
	C315.298920,117.551521 315.683594,116.475853 315.986267,115.629433 
	C314.520416,114.906754 313.174866,114.243378 311.829315,113.580002 
	C311.864746,113.052315 311.900177,112.524628 311.935638,111.996941 
	C313.670959,111.692841 315.400116,111.346268 317.142670,111.091812 
	C325.780640,109.830460 334.058502,108.030869 337.516663,98.420265 
	C338.729553,95.049507 340.571442,95.575096 342.694153,97.649330 
	C344.744965,99.653275 346.887543,101.563271 348.989807,103.514542 
	C349.599731,98.728668 347.241791,96.095612 343.709839,94.506088 
	C339.698364,92.700783 335.540375,91.222664 331.456421,89.576591 
	C324.085632,86.605736 311.219971,89.627350 306.084839,95.247849 
	C296.925171,105.273262 294.979462,116.462799 299.714600,129.015305 
	C298.322235,129.455948 297.327576,129.844467 296.332916,130.233002 
M353.883179,116.828438 
	C354.621124,121.492790 354.977509,126.262245 356.223724,130.786591 
	C357.139221,134.110306 359.188904,136.804825 363.322052,137.567657 
	C371.165802,139.015350 378.176178,135.332916 382.081787,128.771225 
	C382.987427,127.249680 384.988586,126.406006 386.393005,125.147034 
	C387.434296,124.213585 389.311066,122.456703 389.131775,122.187378 
	C387.239502,119.344383 385.008820,116.726662 382.926178,114.117188 
	C382.926178,114.117188 382.993439,114.175728 383.041870,113.418694 
	C381.726257,110.103134 380.410675,106.787567 379.217133,103.779617 
	C373.676941,104.975899 367.560699,106.296570 360.917206,107.731087 
	C363.122375,108.735168 367.213562,108.748474 365.378876,111.340111 
	C361.702271,111.748894 359.448364,111.999496 357.255463,112.251747 
	C357.255463,112.251747 357.273254,112.194351 357.130371,111.380951 
	C356.278473,112.600121 355.426544,113.819290 354.261475,115.259514 
	C354.086945,115.461761 353.996124,115.696411 353.883179,116.828438 
M387.928162,111.668892 
	C390.480072,114.980804 393.031952,118.292717 395.765717,121.840637 
	C396.288177,118.666061 396.615662,115.852760 397.233917,113.104889 
	C398.261292,108.538651 394.789337,97.457924 391.388031,94.956207 
	C388.270752,92.663422 385.393066,89.843811 381.949677,88.251183 
	C378.375977,86.598267 373.888885,84.642700 370.441681,85.474281 
	C363.550415,87.136658 356.403137,89.623108 353.232819,97.889542 
	C354.411804,99.319786 356.029999,102.853073 357.506165,102.794701 
	C363.114929,102.572929 368.765564,101.528114 374.223969,100.110878 
	C377.362518,99.295967 380.161865,97.174721 383.658173,95.358864 
	C384.163269,101.434578 382.695099,107.129387 387.928162,111.668892 
M390.098328,128.657471 
	C388.946228,129.249771 387.468811,129.570740 386.704712,130.486725 
	C384.650330,132.949493 382.626373,135.540268 381.306244,138.409607 
	C381.091980,138.875351 384.536652,141.019791 386.283783,142.396255 
	C386.672913,142.702820 387.056793,143.021713 387.407166,143.370987 
	C392.394012,148.342621 397.374664,153.320496 402.194153,158.134323 
	C403.803406,153.751053 403.024139,148.818756 400.132751,144.017914 
	C398.717010,141.667267 397.143463,139.230011 396.524170,136.622299 
	C395.496735,132.296036 395.181824,127.800545 394.593048,123.565338 
	C393.336639,125.043579 392.001404,126.614601 390.098328,128.657471 
M291.531799,102.414085 
	C292.146362,103.288361 292.760925,104.162643 293.053986,104.579544 
	C298.374359,98.274673 303.558655,92.131058 308.764404,85.962006 
	C305.692169,83.334023 302.103363,83.427826 298.548553,85.425072 
	C292.217102,88.982361 289.875793,94.298035 291.531799,102.414085 
M363.248047,151.078308 
	C369.177582,150.116898 375.732330,144.928345 375.822906,141.135986 
	C371.665375,141.799789 367.507874,142.463593 362.770294,143.220001 
	C362.650360,145.702896 362.521423,148.372360 363.248047,151.078308 
M337.717072,162.840958 
	C336.965576,161.242889 336.214081,159.644821 335.687988,158.526016 
	C332.070496,158.870270 329.055481,159.157181 325.623169,159.483795 
	C330.359283,163.908524 334.113953,168.950256 341.312988,170.107315 
	C340.044952,167.534180 339.054993,165.525238 337.717072,162.840958 
z"/>
<path fill="#E4E2D3" opacity="1.000000" stroke="none" 
	d="
M374.527496,166.766159 
	C379.143921,166.243744 377.170288,170.952957 379.684082,172.998505 
	C381.174225,174.634720 382.098572,175.821381 383.022919,177.008057 
	C384.150909,177.867218 385.278900,178.726395 386.651489,179.770767 
	C383.053528,183.622940 379.206665,187.285400 375.371521,190.960144 
	C374.431946,191.860413 373.530884,192.800919 372.113190,193.620483 
	C370.664276,193.918060 369.727112,194.603394 368.761139,194.646713 
	C367.519623,194.702408 366.255005,194.242722 364.948273,193.622345 
	C363.200745,193.592422 361.456451,193.793930 359.817688,194.322479 
	C349.022369,197.804306 338.529480,198.188248 327.772797,193.428223 
	C321.825317,190.796356 315.112976,189.892960 308.438812,188.129364 
	C307.850128,191.610275 307.406219,194.235153 306.947327,196.948746 
	C308.706543,197.331940 309.986450,197.610748 310.882690,197.954590 
	C309.585815,199.418213 308.672607,200.816772 307.759369,202.215332 
	C299.945892,199.373138 292.132446,196.530945 284.358917,193.703262 
	C284.032074,197.131073 283.795349,200.965347 283.223572,204.749008 
	C283.062042,205.818054 281.920563,206.739029 281.228516,207.727905 
	C280.467987,206.694687 279.059265,205.667999 279.048737,204.627197 
	C278.959412,195.783203 278.687225,186.900360 279.416382,178.107681 
	C279.733246,174.286758 282.509644,170.724731 283.689117,166.897232 
	C284.277527,164.987747 284.235474,162.623795 283.708557,160.673462 
	C280.531464,148.913879 286.386200,141.572113 298.538116,141.926270 
	C300.743774,141.990555 302.992523,140.576111 305.841187,139.640808 
	C303.257416,137.509979 301.299164,135.895004 299.089722,133.815613 
	C298.673981,133.176773 298.474304,133.065063 298.239532,133.016083 
	C297.691620,132.298141 297.143707,131.580215 296.464355,130.547638 
	C297.327576,129.844467 298.322235,129.455948 299.993774,129.100708 
	C300.808472,129.271393 300.946350,129.408752 301.143738,129.642731 
	C301.203308,129.739334 301.543274,130.039230 301.709198,130.065338 
	C301.875122,130.091461 301.950470,130.418823 302.024536,130.522491 
	C302.205536,130.763260 302.338959,130.866074 302.729980,131.219910 
	C303.536957,131.929733 304.112762,132.354218 305.192719,133.150375 
	C304.454834,130.011093 303.866364,127.507439 303.277863,125.003799 
	C304.589417,124.650330 305.900940,124.296860 307.571289,124.368149 
	C309.306671,126.955864 310.479858,130.722305 312.104706,130.928406 
	C314.969391,131.291763 315.730072,132.748672 316.957703,134.624664 
	C318.670471,137.242004 320.852936,139.554214 322.533936,142.188721 
	C323.060028,143.013214 322.615967,144.456741 322.615967,146.639496 
	C319.203094,144.051697 316.637115,142.106079 313.627472,139.824020 
	C313.828552,141.466248 313.980927,142.710480 314.133301,143.954697 
	C313.025787,143.970932 311.918243,143.987167 310.075684,143.888901 
	C309.179260,143.615295 309.017914,143.456207 308.796051,143.239914 
	C308.584045,143.091721 308.425690,143.082977 307.886322,143.323715 
	C304.799347,146.269455 302.086487,149.047974 299.283325,151.918930 
	C303.308777,157.738297 300.219696,165.463623 293.135162,166.511276 
	C291.309296,166.781250 288.388214,167.670609 288.133820,168.774185 
	C287.684570,170.722977 288.897491,173.054916 289.309052,174.783173 
	C297.847626,168.744568 300.366486,177.042328 304.725769,179.543533 
	C305.003204,178.281876 305.294525,176.957077 305.655701,175.314682 
	C306.736725,175.703857 307.405182,175.803513 307.897522,176.152008 
	C308.832520,176.813873 309.637115,177.656647 310.547302,178.357452 
	C321.157471,186.527039 332.588348,192.774490 346.488678,192.142227 
	C356.315796,191.695236 365.124817,187.792404 373.853973,183.472565 
	C377.225739,181.803940 378.300934,180.235123 376.977722,176.735535 
	C376.832001,176.345459 376.677643,176.175308 376.322876,175.793671 
	C376.123688,175.338379 376.067596,175.146530 375.970032,174.783188 
	C375.841919,174.383682 375.696594,174.202850 375.354187,173.705887 
	C375.160675,173.089264 375.105530,172.835999 374.973907,172.479340 
	C374.790710,172.236206 374.657013,172.130753 374.297058,171.765594 
	C373.042786,171.641388 371.987793,171.811172 370.757904,172.033783 
	C370.353119,172.190781 370.175171,172.352264 369.692078,172.761154 
	C367.807465,173.338318 366.279968,173.725388 364.480988,173.829681 
	C363.471008,173.940735 362.732544,174.334534 361.700684,174.861618 
	C360.978058,175.012924 360.548798,175.030930 360.119537,175.048950 
	C358.781891,174.260376 357.444275,173.471786 356.149414,172.125916 
	C356.383789,171.303024 356.629181,171.103485 357.158875,170.861908 
	C357.584534,170.481918 357.779602,170.210052 358.159058,169.707977 
	C358.954468,168.997131 359.565460,168.516495 360.316650,167.986481 
	C360.641541,167.851929 360.789917,167.724518 360.968506,167.259552 
	C361.441681,166.537979 361.848297,166.111710 362.623108,165.757416 
	C363.859406,166.476074 364.689636,167.186020 365.613922,167.738632 
	C365.988983,167.962875 366.568909,167.844528 367.449463,167.915405 
	C370.071411,167.554550 372.299438,167.160355 374.527496,166.766159 
M303.076477,191.857803 
	C305.266846,186.331161 301.245789,183.394928 299.553436,181.041748 
	C295.524933,181.041748 292.979156,181.041748 290.795258,181.041748 
	C289.767212,183.852371 288.746490,186.642929 287.329865,190.515884 
	C291.157562,191.598572 295.554749,192.960312 300.025970,194.005295 
	C300.895996,194.208618 302.054077,193.179443 303.076477,191.857803 
z"/>
<path fill="#EDEDEC" opacity="1.000000" stroke="none" 
	d="
M295.127808,221.304047 
	C301.746643,221.799484 308.051880,221.523758 313.982697,222.882401 
	C319.855682,224.227783 324.079041,228.416168 324.805603,234.941650 
	C325.610382,242.169617 324.202911,248.508469 316.551971,252.191711 
	C319.825134,257.243286 322.963837,262.087372 326.723877,267.890350 
	C322.800201,267.890350 319.889740,268.118347 317.047729,267.776611 
	C315.931885,267.642456 314.700348,266.414917 313.992096,265.367249 
	C312.440674,263.072113 311.303619,260.499512 309.787659,258.177124 
	C307.879578,255.253983 305.761871,254.775543 296.641510,254.871948 
	C296.641510,257.918365 296.537811,260.998260 296.665649,264.068573 
	C296.861176,268.763458 293.461151,267.667694 290.801971,267.898468 
	C287.869324,268.152985 286.149872,267.547546 286.197205,263.931091 
	C286.364868,251.120911 286.322876,238.306473 286.201019,225.495148 
	C286.172882,222.533295 287.123444,221.109314 290.164978,221.264633 
	C291.655914,221.340759 293.154846,221.259125 295.127808,221.304047 
M313.143402,232.345093 
	C307.995850,228.857468 302.363922,229.993195 296.919861,230.016983 
	C296.919861,235.693451 296.919861,240.751587 296.919861,246.519592 
	C301.142883,246.061340 305.076172,245.961487 308.857025,245.150925 
	C315.205566,243.789932 317.093384,238.470901 313.143402,232.345093 
z"/>
<path fill="#2CAAA6" opacity="1.000000" stroke="none" 
	d="
M454.950073,237.910645 
	C459.591278,247.796844 464.172943,257.305481 469.140717,267.615479 
	C465.759094,267.770264 463.893585,267.559387 462.191681,267.992096 
	C457.989655,269.060455 455.796326,267.043060 455.228119,263.328400 
	C454.560669,258.964813 452.415253,257.471893 448.127014,257.889526 
	C444.663116,258.226898 441.075989,258.353210 437.655640,257.834351 
	C432.620239,257.070557 430.416931,259.565735 428.967590,263.779633 
	C427.725922,267.389648 421.675690,269.603638 418.475922,267.496155 
	C417.751190,267.018799 417.435944,264.849548 417.862518,263.860229 
	C422.026947,254.201813 426.416687,244.640869 430.679932,235.024536 
	C432.197876,231.600555 433.674835,228.147064 434.929077,224.621170 
	C435.914490,221.850967 437.330353,220.048798 440.561401,220.235962 
	C443.840973,220.425949 447.217377,220.259079 448.873383,223.987701 
	C450.878754,228.502975 452.884796,233.017960 454.950073,237.910645 
M436.363983,248.741959 
	C440.184357,248.741959 444.004761,248.741959 448.582001,248.741959 
	C446.301117,243.897263 444.370911,239.797440 442.017242,234.798187 
	C439.657043,240.005783 437.852631,243.987061 436.363983,248.741959 
z"/>
<path fill="#EDEDEB" opacity="1.000000" stroke="none" 
	d="
M271.706787,267.880432 
	C262.584961,267.882629 253.929565,267.777405 245.278549,267.926788 
	C242.232193,267.979370 241.189545,266.929993 241.218109,263.893921 
	C241.338654,251.080933 241.366959,238.265244 241.225693,225.452789 
	C241.187836,222.018753 242.685211,221.182724 245.739822,221.231003 
	C253.371445,221.351639 261.006775,221.356049 268.639191,221.274307 
	C276.449066,221.190689 276.448334,221.121536 275.703247,230.118683 
	C267.718445,230.118683 259.662201,230.118683 251.202377,230.118683 
	C251.202377,233.202576 251.202377,236.393051 251.202377,240.075562 
	C258.226898,240.075562 265.300842,240.075562 272.582581,240.075562 
	C272.582581,242.987961 272.582581,245.429962 272.582581,248.795486 
	C267.405365,248.795486 262.126465,249.257217 256.968445,248.665451 
	C251.824966,248.075363 250.315460,250.059067 250.772095,254.704010 
	C250.900009,256.005096 250.791611,257.329376 250.791611,259.304840 
	C258.076508,259.304840 265.164246,259.371307 272.249634,259.271881 
	C275.055786,259.232483 277.024811,259.434418 277.105713,263.126404 
	C277.188141,266.889740 275.847992,268.392212 271.706787,267.880432 
z"/>
<path fill="#F1F1F0" opacity="1.000000" stroke="none" 
	d="
M355.008118,259.330322 
	C360.314819,259.329407 365.125702,259.329407 370.328339,259.329407 
	C370.328339,262.116821 370.328339,264.666656 370.328339,267.555054 
	C358.839630,267.555054 347.280853,267.555054 335.006561,267.555054 
	C335.006561,265.037872 335.006775,262.447937 335.006531,259.858002 
	C335.005463,248.374329 335.092377,236.889496 334.943207,225.407745 
	C334.904358,222.416397 335.778412,221.239120 338.858887,221.261841 
	C347.586487,221.326279 356.315735,221.166763 365.044342,221.093597 
	C371.398163,221.040359 369.560486,225.647598 369.754791,229.659744 
	C361.604584,229.659744 353.543823,229.659744 345.218262,229.659744 
	C345.218262,233.225769 345.218262,236.315308 345.218262,239.935394 
	C352.307281,239.935394 359.516205,239.935394 366.843384,239.935394 
	C366.843384,242.914230 366.843384,245.367569 366.843384,248.341644 
	C359.747253,248.341644 352.707458,248.341644 345.308838,248.341644 
	C345.308838,251.996582 345.308838,255.372833 345.308838,259.331207 
	C348.323761,259.331207 351.418060,259.331207 355.008118,259.330322 
z"/>
<path fill="#EFEFEE" opacity="1.000000" stroke="none" 
	d="
M410.636536,224.383179 
	C410.595520,227.450012 410.264801,230.267319 409.871796,233.615479 
	C403.393158,230.194565 397.636963,228.547455 391.608002,230.200195 
	C390.018951,230.635818 388.283447,232.857086 387.913788,234.543076 
	C387.695221,235.540054 389.781891,237.735474 391.246368,238.282501 
	C396.252502,240.152420 401.433075,241.561371 406.564056,243.089218 
	C412.195923,244.766205 414.287384,249.359161 414.468506,254.373276 
	C414.618500,258.524811 412.766571,262.301300 408.618469,264.811371 
	C399.662231,270.230865 385.993347,269.136810 376.232300,261.692780 
	C377.558716,259.562103 378.889099,257.425079 380.478638,254.871796 
	C385.779724,258.752350 391.650208,259.821289 398.027283,259.428833 
	C401.041534,259.243347 404.076477,258.642365 403.828156,255.679398 
	C403.659851,253.671005 400.922821,251.215332 398.753082,250.189087 
	C395.308350,248.559784 391.242767,248.291656 387.680389,246.852356 
	C379.960632,243.733429 377.598419,240.242599 378.076752,233.742172 
	C378.486237,228.177094 383.462189,222.364410 389.999756,221.629745 
	C396.822845,220.862991 403.944061,220.301849 410.636536,224.383179 
z"/>
<path fill="#F2F2F1" opacity="1.000000" stroke="none" 
	d="
M218.926987,261.849792 
	C218.926788,263.968658 218.926788,265.607697 218.926788,267.559937 
	C215.885010,267.559937 213.145493,267.559937 209.921585,267.559937 
	C209.921585,255.262619 209.921585,242.875320 209.921585,230.162521 
	C204.741898,230.162521 200.027679,230.162521 194.969223,230.162521 
	C194.969223,227.160873 194.969223,224.484894 194.969223,221.483719 
	C207.989319,221.483719 220.694504,221.483719 233.682266,221.483719 
	C233.682266,224.169693 233.682266,227.063171 233.682266,230.628723 
	C230.215225,230.628723 226.525024,231.349823 223.290176,230.444321 
	C219.338272,229.338074 218.927505,230.974548 218.927307,233.945938 
	C218.926682,243.087265 218.927155,252.228577 218.926987,261.849792 
z"/>
<path fill="#2FA6A3" opacity="1.000000" stroke="none" 
	d="
M484.695801,265.431458 
	C481.960602,269.915100 478.040924,267.488678 474.724701,267.412933 
	C474.136047,267.399506 473.179443,263.821869 473.157440,261.881409 
	C473.019531,249.720322 473.057587,237.556488 473.144897,225.394348 
	C473.159821,223.315552 472.063049,220.399704 475.932800,220.218048 
	C481.518494,219.955795 484.550079,221.657455 484.600098,225.532288 
	C484.739868,236.353836 484.721649,247.177475 484.760010,258.000305 
	C484.768250,260.327972 484.752045,262.655701 484.695801,265.431458 
z"/>
<path fill="#E4E2D5" opacity="1.000000" stroke="none" 
	d="
M307.763489,202.190536 
	C308.672607,200.816772 309.585815,199.418213 311.261017,198.000641 
	C317.040802,199.258575 322.014404,200.757019 327.084991,201.769775 
	C340.774353,204.503937 353.828033,203.742935 365.000336,194.005051 
	C366.255005,194.242722 367.519623,194.702408 368.761139,194.646713 
	C369.727112,194.603394 370.664276,193.918060 371.806183,193.756805 
	C359.171692,206.018478 344.409943,210.894363 326.989594,206.423050 
	C321.267120,204.954254 315.438965,203.896973 309.093964,202.422928 
	C308.277405,202.111267 308.026733,202.113525 307.776825,202.201096 
	C307.776825,202.201096 307.767578,202.165741 307.763489,202.190536 
z"/>
<path fill="#C7C9C5" opacity="1.000000" stroke="none" 
	d="
M216.847504,290.722656 
	C215.548935,290.908661 214.153229,290.852753 212.970642,291.327667 
	C209.863617,292.575317 208.037262,290.744171 208.160675,288.357910 
	C208.337479,284.939178 206.882050,283.127197 204.248352,281.825836 
	C202.900467,281.159790 201.351456,280.900818 199.893341,280.457886 
	C199.670090,282.654907 199.108429,284.901459 199.418716,287.020355 
	C199.518784,287.703766 201.881561,288.295929 203.267059,288.470276 
	C204.261749,288.595398 205.352509,287.956879 206.400406,287.659058 
	C206.651077,288.178406 206.901749,288.697784 207.152420,289.217133 
	C205.283813,290.084839 203.054611,292.044983 201.627838,291.574066 
	C199.259918,290.792480 196.278366,288.830048 195.554611,286.689148 
	C193.550537,280.760986 198.712708,275.958893 204.570480,278.126831 
	C206.627533,278.888123 208.081436,281.279144 210.758911,282.190186 
	C210.988754,284.181396 211.218597,286.172607 211.448441,288.163818 
	C211.902664,288.130707 212.356873,288.097595 212.811081,288.064514 
	C212.677216,286.522705 212.390259,284.970306 212.496185,283.445129 
	C212.531158,282.941620 213.580139,282.508545 214.554352,282.506348 
	C215.578003,285.553833 216.212753,288.138245 216.847504,290.722656 
z"/>
<path fill="#D5D3C5" opacity="1.000000" stroke="none" 
	d="
M281.512665,123.756973 
	C281.217041,129.779160 286.495972,129.693771 290.352203,132.013123 
	C287.738770,133.382568 285.313751,134.046967 283.825165,135.605667 
	C282.368500,137.130936 281.866180,139.567642 280.968811,141.551529 
	C278.169403,138.548233 275.321075,135.492401 272.472717,132.436584 
	C272.126373,132.737854 271.780029,133.039108 271.433685,133.340378 
	C271.375641,133.022186 271.182953,132.475327 271.278992,132.418762 
	C275.094849,130.171524 278.559143,127.593231 280.379486,123.338013 
	C280.417358,123.249504 280.996735,123.392662 281.512665,123.756973 
z"/>
<path fill="#DEDBCD" opacity="1.000000" stroke="none" 
	d="
M348.471924,66.539902 
	C349.414337,71.528313 352.142700,74.537781 357.275604,76.304108 
	C350.362274,75.808311 350.552887,82.260841 348.018585,85.022202 
	C344.898773,81.546936 342.188324,78.527695 339.910706,75.990555 
	C341.673279,73.420677 343.995850,69.966034 346.428467,66.590698 
	C346.677887,66.244598 347.585693,66.372993 348.471924,66.539902 
z"/>
<path fill="#DEDDCF" opacity="1.000000" stroke="none" 
	d="
M406.769012,192.131073 
	C404.447266,189.303009 402.346741,186.778549 400.862091,184.994278 
	C403.369507,181.928314 405.815826,178.937042 408.625061,175.502014 
	C409.596130,180.114914 412.194427,183.844711 417.603180,183.865540 
	C413.861633,187.606018 410.522522,190.944229 407.229279,194.236572 
	C407.163177,193.738495 407.076691,193.086594 406.769012,192.131073 
z"/>
<path fill="#DDDEDC" opacity="1.000000" stroke="none" 
	d="
M399.003906,282.131470 
	C399.688019,282.700531 400.845551,283.186737 400.962494,283.855011 
	C401.249268,285.494049 401.056213,287.217041 401.056213,288.906250 
	C401.630096,288.926758 402.203979,288.947266 402.777893,288.967743 
	C402.913910,287.064056 403.147430,285.160919 403.158752,283.256500 
	C403.170258,281.322723 402.962494,279.387634 402.848206,277.409119 
	C405.142761,277.566132 405.165253,277.617035 406.680939,285.931946 
	C407.744720,280.221924 411.128571,282.715729 414.097229,283.706024 
	C415.406647,286.368225 414.252747,289.486053 410.799164,290.945587 
	C408.773895,291.801483 406.061737,291.015228 403.658325,290.999084 
	C402.082672,290.988525 400.506653,291.034149 398.462280,290.684174 
	C397.977234,289.827332 397.960693,289.340881 397.944153,288.854462 
	C397.958435,287.512512 397.972717,286.170593 398.208313,284.275665 
	C398.621063,283.192291 398.812469,282.661865 399.003906,282.131470 
z"/>
<path fill="#CCCDC9" opacity="1.000000" stroke="none" 
	d="
M343.694702,291.172150 
	C342.430115,290.394714 341.468994,289.807465 340.902893,289.461578 
	C339.318756,290.286621 337.919891,291.015137 336.521057,291.743683 
	C335.990173,290.463257 335.105103,289.210968 335.000732,287.896698 
	C334.768890,284.978760 334.928406,282.029755 334.928406,277.913635 
	C337.785095,280.035339 339.624847,281.401764 340.922607,282.365631 
	C342.574097,282.143677 344.895081,281.511047 347.147858,281.698456 
	C347.964630,281.766388 348.618347,283.794678 349.346466,284.928467 
	C347.620453,285.771729 345.894440,286.615021 343.002319,288.028046 
	C345.385254,288.283356 346.886505,288.444183 348.387756,288.605011 
	C348.546692,288.969635 348.705658,289.334259 348.864594,289.698883 
	C347.242432,290.253357 345.620270,290.807861 343.694702,291.172150 
z"/>
<path fill="#C7C9C5" opacity="1.000000" stroke="none" 
	d="
M326.914124,290.766663 
	C325.898438,290.778503 324.882812,290.790344 324.025269,290.117035 
	C324.480103,287.981903 324.776855,286.531891 324.893280,285.963074 
	C322.166718,286.495483 319.786926,286.960205 317.410431,287.424255 
	C318.182495,288.501923 319.115997,289.805023 320.049530,291.108093 
	C315.869812,292.577179 315.674957,288.339966 313.312714,286.430878 
	C313.310913,284.399658 313.686005,282.604309 314.061096,280.808960 
	C317.163971,281.253876 320.422729,282.531281 323.340027,281.985016 
	C331.545227,280.448639 331.746399,280.319366 332.997314,288.049561 
	C333.117889,288.794891 333.495605,289.498627 333.878204,290.569336 
	C332.645294,290.743591 331.707184,290.876190 330.393494,290.469757 
	C329.860260,287.684875 329.702576,285.438995 329.544891,283.193146 
	C328.834930,283.190186 328.124969,283.187225 327.415009,283.184265 
	C327.248047,285.711731 327.081085,288.239197 326.914124,290.766663 
z"/>
<path fill="#C7C9C5" opacity="1.000000" stroke="none" 
	d="
M467.020325,287.929626 
	C467.641388,287.100342 468.969727,285.982788 468.768372,285.488739 
	C467.486053,282.342682 469.624359,281.179291 471.682465,281.480865 
	C473.178009,281.700012 474.618439,283.736328 475.632324,285.262177 
	C476.243683,286.182220 475.991638,287.675995 476.939606,288.955933 
	C477.325989,286.518585 477.712341,284.081238 478.169617,281.196564 
	C480.342072,281.612976 482.135986,281.956787 483.929901,282.300629 
	C479.113403,283.877716 479.428619,287.063843 480.849792,290.879272 
	C474.916504,290.879272 469.380951,290.879272 463.793671,290.436462 
	C464.834747,289.305664 465.927551,288.617645 467.020325,287.929626 
z"/>
<path fill="#E2E2E2" opacity="1.000000" stroke="none" 
	d="
M280.012817,283.035492 
	C280.853363,281.669189 281.693939,280.302917 282.652069,278.745514 
	C284.936890,280.900726 286.546814,283.571960 290.352081,281.640411 
	C291.431366,281.092529 293.914703,283.310791 295.754150,284.260498 
	C294.049713,285.321503 292.345245,286.382477 290.231384,287.698334 
	C290.582336,287.951263 291.446869,288.574341 292.622192,289.538269 
	C292.955048,290.252014 292.977020,290.624878 292.999023,290.997742 
	C291.468475,290.816162 289.937927,290.634583 288.226593,289.886047 
	C287.353210,288.726593 286.660583,288.134094 285.967987,287.541626 
	C285.646301,288.696564 285.324585,289.851471 285.002899,291.006409 
	C284.088593,290.834991 283.174316,290.663574 282.136108,289.848419 
	C281.345734,287.148254 280.679291,285.091888 280.012817,283.035492 
z"/>
<path fill="#F9F9F9" opacity="1.000000" stroke="none" 
	d="
M246.006317,291.010040 
	C243.258713,290.932220 240.511108,290.854401 237.458801,290.405334 
	C237.642715,287.715454 238.131348,285.396729 238.619980,283.078033 
	C239.414764,283.497803 240.582138,284.474548 240.937210,284.237000 
	C242.199142,283.392822 243.184280,282.134888 244.624176,281.394165 
	C245.324539,282.260895 245.674973,282.767120 246.025391,283.273315 
	C246.028473,282.577240 246.031540,281.881165 246.034622,281.185089 
	C246.173645,280.072205 246.312637,278.959320 246.643127,276.313446 
	C248.060654,277.845551 249.329208,278.654022 249.700424,279.762909 
	C250.145874,281.093567 249.826431,282.680237 249.582855,284.819763 
	C249.187271,287.217010 249.047012,288.950500 248.906769,290.684021 
	C248.503250,290.717194 248.099747,290.750336 247.425049,290.345276 
	C246.509628,288.942963 245.865402,287.978851 245.221176,287.014740 
	C244.791245,287.363373 244.361313,287.712006 243.931366,288.060608 
	C244.623016,289.043762 245.314667,290.026886 246.006317,291.010040 
z"/>
<path fill="#E9E9E7" opacity="1.000000" stroke="none" 
	d="
M447.191284,285.209076 
	C447.239868,285.833282 447.288483,286.457458 447.181885,287.618439 
	C447.164398,288.459076 447.302094,288.762970 447.439789,289.066833 
	C447.075897,289.999756 446.712006,290.932648 446.348083,291.865570 
	C445.762817,290.907990 444.801025,289.994141 444.683502,288.982239 
	C444.520508,287.579193 444.991821,286.102478 445.236725,284.330505 
	C443.793396,284.220642 442.587860,284.128876 440.835876,283.995544 
	C441.206085,286.477997 441.505737,288.487213 441.824768,290.626526 
	C439.335724,290.817200 436.768127,291.199402 434.211914,291.134521 
	C432.851929,291.100037 431.511658,290.291351 430.162476,289.832092 
	C430.856323,288.564484 431.550201,287.296906 432.954834,286.009918 
	C438.850342,283.788269 432.776947,283.139252 433.061676,281.613037 
	C440.466187,279.714447 436.203217,286.963104 439.356079,289.698029 
	C439.356079,286.780579 439.356079,284.662415 439.356079,281.824860 
	C441.597412,282.108490 444.024414,282.415649 446.710327,283.256500 
	C447.043274,284.263184 447.117279,284.736115 447.191284,285.209076 
z"/>
<path fill="#DDDEDC" opacity="1.000000" stroke="none" 
	d="
M313.628113,280.735260 
	C313.686005,282.604309 313.310913,284.399658 312.967834,286.597137 
	C313.221527,287.969635 313.610901,288.937347 313.626404,289.910980 
	C313.650970,291.453186 313.985687,293.553925 313.154205,294.394165 
	C312.249939,295.307983 310.007629,295.563873 308.641602,295.146942 
	C307.518921,294.804321 306.824890,293.057159 305.967712,291.218079 
	C305.980652,290.300659 305.966766,290.097656 305.952911,289.894684 
	C305.953796,289.732910 305.979523,289.566772 305.951996,289.410004 
	C304.942719,283.657410 307.276825,280.676666 313.628113,280.735260 
z"/>
<path fill="#BBBBBB" opacity="1.000000" stroke="none" 
	d="
M249.255737,290.789154 
	C249.047012,288.950500 249.187271,287.217010 249.614746,285.255493 
	C251.274323,283.754486 252.576920,281.549530 254.036392,281.440277 
	C255.933655,281.298248 258.647247,282.320435 259.708649,283.784576 
	C260.583832,284.991821 260.272461,288.590424 259.228668,289.313843 
	C257.477234,290.527710 254.728455,290.318939 252.392868,290.665253 
	C251.472397,290.801758 250.534592,290.821411 249.255737,290.789154 
z"/>
<path fill="#CCCDC9" opacity="1.000000" stroke="none" 
	d="
M379.922607,288.833496 
	C379.849121,287.242554 379.775604,285.651642 379.702087,284.060699 
	C379.242706,284.015625 378.783325,283.970520 378.323944,283.925446 
	C378.103271,286.087433 377.882568,288.249420 377.659698,290.411194 
	C374.024994,290.923645 374.024994,290.923645 371.051849,282.501221 
	C380.051147,280.234985 383.115631,279.798218 383.678925,289.254639 
	C384.006104,289.492645 383.976410,289.431641 383.976410,289.431641 
	C382.921783,289.920258 381.867126,290.408844 380.417938,290.490906 
	C379.989777,289.667389 379.956207,289.250427 379.922607,288.833496 
M372.902008,286.543671 
	C373.011841,287.310272 373.121674,288.076904 373.231476,288.843506 
	C373.447113,288.827911 373.662720,288.812286 373.878357,288.796692 
	C373.878357,287.315216 373.878357,285.833740 373.878357,284.352264 
	C373.703735,284.343750 373.529114,284.335205 373.354462,284.326691 
	C373.220490,284.779205 373.086517,285.231750 372.902008,286.543671 
z"/>
<path fill="#CCCDC9" opacity="1.000000" stroke="none" 
	d="
M431.045868,281.733063 
	C429.991180,283.200104 428.936493,284.667175 427.629395,286.485260 
	C427.534058,286.449921 426.561401,286.089233 424.586823,285.357056 
	C425.415955,287.678711 425.952637,289.181458 426.496002,290.702942 
	C424.889160,290.702942 423.283844,290.702942 421.627319,290.702942 
	C421.627319,286.475555 421.627319,282.495392 421.627319,277.906769 
	C424.310516,279.959351 429.250610,274.130402 430.862305,281.426422 
	C430.985046,281.802094 431.045868,281.733063 431.045868,281.733063 
z"/>
<path fill="#DEDDCF" opacity="1.000000" stroke="none" 
	d="
M414.908447,130.985352 
	C413.209900,132.803391 411.884674,134.576614 410.622894,136.264923 
	C408.705109,133.900848 406.924530,131.705902 405.046387,129.390671 
	C406.648651,127.581673 408.613037,125.363838 410.456421,123.282623 
	C412.672577,125.258308 415.185303,127.498413 417.628845,129.676819 
	C416.996399,130.017334 416.139099,130.478928 414.908447,130.985352 
z"/>
<path fill="#D8D8D8" opacity="1.000000" stroke="none" 
	d="
M384.297485,289.654663 
	C383.976410,289.431641 384.006104,289.492645 384.038879,289.484894 
	C384.164581,282.406281 384.164581,282.406281 395.401642,281.582825 
	C395.984863,284.001953 396.569611,286.420746 397.549255,288.846985 
	C397.960693,289.340881 397.977234,289.827332 398.003296,290.678711 
	C396.767792,290.897491 395.522766,290.751343 394.084290,290.007935 
	C392.925171,288.271790 391.959534,287.132904 391.274109,285.958557 
	C391.877319,285.626465 392.200287,285.329834 392.523254,285.033234 
	C392.322327,284.852661 392.121399,284.672119 391.920471,284.491547 
	C391.615295,284.996216 391.310120,285.500854 390.694824,285.974060 
	C389.449402,285.083893 388.514069,284.225189 387.580719,283.368347 
	C385.040497,287.271698 385.642792,288.539734 391.053741,290.637878 
	C388.908691,290.384460 386.763641,290.131073 384.297485,289.654663 
z"/>
<path fill="#D8D8D8" opacity="1.000000" stroke="none" 
	d="
M365.200012,278.478027 
	C366.445526,278.268097 367.492645,278.419067 368.374390,278.546204 
	C366.975067,282.887146 365.711578,286.806641 364.251160,291.336975 
	C358.509247,288.474640 360.343445,281.693481 356.137817,278.135590 
	C358.159821,278.135590 359.638062,278.135590 360.882568,278.135590 
	C361.642303,280.747345 362.365967,283.234985 363.089630,285.722626 
	C363.426971,285.716766 363.764313,285.710876 364.101654,285.704987 
	C364.401642,283.416290 364.701630,281.127625 365.200012,278.478027 
z"/>
<path fill="#D4D5D3" opacity="1.000000" stroke="none" 
	d="
M279.611511,282.997314 
	C280.679291,285.091888 281.345734,287.148254 282.012939,289.583252 
	C279.921112,290.296753 277.828522,290.631653 275.471252,290.501282 
	C275.707153,289.235992 276.207672,288.436005 276.940430,287.264862 
	C275.440399,287.162109 274.501556,287.097778 273.199341,287.009766 
	C272.593506,286.997803 272.351013,287.009521 272.108551,287.021210 
	C272.042694,285.974304 271.976837,284.927429 272.114929,283.395721 
	C272.534210,282.653107 272.749512,282.395294 272.964813,282.137482 
	C275.046631,282.411346 277.128418,282.685242 279.611511,282.997314 
z"/>
<path fill="#E9E9E7" opacity="1.000000" stroke="none" 
	d="
M238.489594,282.813110 
	C238.131348,285.396729 237.642715,287.715454 237.091141,290.347961 
	C234.165878,290.561707 231.303558,290.461609 228.542267,289.696838 
	C229.431061,288.687164 230.218842,288.342194 231.006622,287.997192 
	C231.605881,286.261017 232.205124,284.524811 233.088394,281.965729 
	C234.175491,282.085846 236.267349,282.317017 238.489594,282.813110 
z"/>
<path fill="#A1A29D" opacity="1.000000" stroke="none" 
	d="
M447.408447,284.936401 
	C447.117279,284.736115 447.043274,284.263184 446.966827,283.425659 
	C448.747894,282.930145 450.531403,282.799225 452.632446,282.644989 
	C452.803925,284.675720 452.977142,286.727386 453.150391,288.779053 
	C453.351929,288.810638 453.553436,288.842194 453.754974,288.873779 
	C454.110291,287.513672 454.465637,286.153534 454.635193,285.504486 
	C455.739105,286.589966 456.949982,287.780731 458.826965,289.220703 
	C459.705811,289.888275 459.918549,290.306549 460.131287,290.724854 
	C456.593536,290.724854 453.055817,290.724854 449.563019,290.724854 
	C448.464722,288.776917 452.736908,285.231140 447.408447,284.936401 
z"/>
<path fill="#898986" opacity="1.000000" stroke="none" 
	d="
M217.262451,290.810211 
	C216.212753,288.138245 215.578003,285.553833 214.935791,282.562195 
	C216.742432,281.729553 218.556534,281.304108 220.773254,280.784210 
	C220.987671,283.793701 221.160095,286.213745 221.671555,288.801819 
	C222.010574,288.969879 222.017212,288.880493 222.017212,288.880493 
	C220.570602,289.552917 219.123993,290.225342 217.262451,290.810211 
z"/>
<path fill="#C7C9C5" opacity="1.000000" stroke="none" 
	d="
M305.558777,289.857635 
	C305.966766,290.097656 305.980652,290.300659 305.971313,290.807983 
	C302.994568,291.024017 300.041077,290.935791 297.074036,290.405579 
	C297.393860,289.600494 297.727295,289.237366 298.060730,288.874207 
	C302.718842,290.409546 300.708221,286.739014 301.119690,284.957336 
	C301.418945,283.661438 301.723602,282.366760 302.025879,281.071564 
	C302.458405,281.198517 302.890930,281.325470 303.323486,281.452423 
	C303.937225,284.241821 304.550934,287.031189 305.558777,289.857635 
z"/>
<path fill="#E9E9E7" opacity="1.000000" stroke="none" 
	d="
M460.646637,290.779480 
	C459.918549,290.306549 459.705811,289.888275 459.233826,289.231567 
	C458.996918,286.010284 459.019257,283.027344 459.047913,279.335815 
	C459.386597,278.134857 459.718964,277.642517 460.051331,277.150146 
	C460.707489,278.794678 461.363678,280.439209 462.003723,282.840057 
	C462.373871,285.856720 462.760162,288.117065 463.146423,290.377411 
	C462.484955,290.529663 461.823456,290.681915 460.646637,290.779480 
z"/>
<path fill="#E2E2E2" opacity="1.000000" stroke="none" 
	d="
M266.070435,283.969635 
	C265.870331,281.980103 265.670685,280.414185 265.397491,278.271912 
	C266.674194,278.197876 268.147888,278.112427 269.779022,278.017822 
	C268.902802,282.626404 268.118683,286.750641 267.334534,290.874878 
	C266.913300,290.807800 266.492065,290.740692 266.070831,290.673615 
	C266.070831,288.580170 266.070831,286.486694 266.070435,283.969635 
z"/>
<path fill="#E9E9E7" opacity="1.000000" stroke="none" 
	d="
M227.878891,289.384888 
	C227.789398,290.049347 227.699890,290.713806 227.610382,291.378296 
	C225.963409,290.629639 224.316437,289.881012 222.343323,289.006439 
	C222.017212,288.880493 222.010574,288.969879 222.055298,288.964447 
	C222.418472,285.866150 220.499939,281.225311 226.498581,282.649261 
	C225.964844,283.497437 225.683578,283.934143 225.402313,284.370819 
	C226.346588,284.323608 227.290878,284.276398 228.235168,284.229156 
	C228.235168,284.229156 228.518463,284.324646 228.356537,284.781982 
	C227.548462,285.930054 226.801270,286.554474 226.289871,287.333649 
	C225.918396,287.899658 225.858841,288.670410 225.660202,289.349854 
	C226.399765,289.361542 227.139328,289.373199 227.878891,289.384888 
z"/>
<path fill="#A1A29D" opacity="1.000000" stroke="none" 
	d="
M463.119263,290.345703 
	C462.760162,288.117065 462.373871,285.856720 462.030823,283.244019 
	C463.388611,282.167603 464.703186,281.443481 466.990448,280.183594 
	C466.990448,283.290222 466.990448,285.183533 467.005402,287.503235 
	C465.927551,288.617645 464.834747,289.305664 463.415344,290.240845 
	C463.088745,290.488007 463.092133,290.313995 463.119263,290.345703 
z"/>
<path fill="#CCCDC9" opacity="1.000000" stroke="none" 
	d="
M298.239868,288.500916 
	C297.727295,289.237366 297.393860,289.600494 296.725708,290.131592 
	C295.466614,290.505768 294.542267,290.712036 293.308472,290.958008 
	C292.977020,290.624878 292.955048,290.252014 292.947235,289.599365 
	C294.106445,289.236176 295.251495,289.152771 296.519257,289.060486 
	C296.519257,285.255859 296.519257,281.446991 296.519257,277.616058 
	C299.332733,277.466339 300.005035,280.621185 298.239868,288.500916 
z"/>
<path fill="#BBBBBB" opacity="1.000000" stroke="none" 
	d="
M391.298340,290.688080 
	C385.642792,288.539734 385.040497,287.271698 387.580719,283.368347 
	C388.514069,284.225189 389.449402,285.083893 390.692383,285.971313 
	C391.000000,286.000000 390.993896,285.994019 390.993896,285.994019 
	C391.959534,287.132904 392.925171,288.271790 393.932800,289.732849 
	C393.164185,290.282745 392.353577,290.510498 391.298340,290.688080 
z"/>
<path fill="#BBBBBB" opacity="1.000000" stroke="none" 
	d="
M320.329590,291.053070 
	C319.115997,289.805023 318.182495,288.501923 317.410431,287.424255 
	C319.786926,286.960205 322.166718,286.495483 324.893280,285.963074 
	C324.776855,286.531891 324.480103,287.981903 323.703369,289.716614 
	C322.352142,290.333527 321.480896,290.665771 320.329590,291.053070 
z"/>
<path fill="#BBBBBB" opacity="1.000000" stroke="none" 
	d="
M327.218323,290.836975 
	C327.081085,288.239197 327.248047,285.711731 327.415009,283.184265 
	C328.124969,283.187225 328.834930,283.190186 329.544891,283.193146 
	C329.702576,285.438995 329.860260,287.684875 330.017151,290.359863 
	C329.185089,290.828430 328.353790,290.867889 327.218323,290.836975 
z"/>
<path fill="#C5C6BD" opacity="1.000000" stroke="none" 
	d="
M283.377472,112.827164 
	C282.423553,114.789627 281.727142,117.127853 279.540619,114.695290 
	C278.805481,113.877426 279.028809,112.198029 278.814026,110.912415 
	C280.386047,111.432198 281.958038,111.951988 283.377472,112.827164 
z"/>
<path fill="#D4D5D3" opacity="1.000000" stroke="none" 
	d="
M227.835602,289.367462 
	C227.139328,289.373199 226.399765,289.361542 225.660202,289.349854 
	C225.858841,288.670410 225.918396,287.899658 226.289871,287.333649 
	C226.801270,286.554474 227.548462,285.930054 228.428421,284.913055 
	C229.296265,285.574554 229.930313,286.562317 230.785492,287.773621 
	C230.218842,288.342194 229.431061,288.687164 228.290253,289.298706 
	C227.937210,289.565247 227.792297,289.350037 227.835602,289.367462 
z"/>
<path fill="#D4D5D3" opacity="1.000000" stroke="none" 
	d="
M432.776550,281.495270 
	C432.776947,283.139252 438.850342,283.788269 433.332947,285.995300 
	C433.943573,283.970978 427.824188,285.784180 431.068512,282.111969 
	C431.045868,281.733063 430.985046,281.802094 430.951782,281.830200 
	C431.442841,281.698029 431.967102,281.537750 432.776550,281.495270 
z"/>
<path fill="#CCCDC9" opacity="1.000000" stroke="none" 
	d="
M285.332428,290.961304 
	C285.324585,289.851471 285.646301,288.696564 285.967987,287.541626 
	C286.660583,288.134094 287.353210,288.726593 288.040039,289.613007 
	C287.243500,290.243378 286.452728,290.579803 285.332428,290.961304 
z"/>
<path fill="#A1A29D" opacity="1.000000" stroke="none" 
	d="
M273.562683,287.033478 
	C274.501556,287.097778 275.440399,287.162109 276.940430,287.264862 
	C276.207672,288.436005 275.707153,289.235992 275.158569,290.338318 
	C274.654205,290.207825 274.197906,289.774994 273.566711,288.912781 
	C273.448792,288.000061 273.505737,287.516785 273.562683,287.033478 
z"/>
<path fill="#BBBBBB" opacity="1.000000" stroke="none" 
	d="
M246.293228,290.974792 
	C245.314667,290.026886 244.623016,289.043762 243.931366,288.060608 
	C244.361313,287.712006 244.791245,287.363373 245.221176,287.014740 
	C245.865402,287.978851 246.509628,288.942963 247.124817,290.292572 
	C246.923889,290.765228 246.752014,290.852386 246.293228,290.974792 
z"/>
<path fill="#A1A29D" opacity="1.000000" stroke="none" 
	d="
M228.139114,284.019287 
	C227.290878,284.276398 226.346588,284.323608 225.402313,284.370819 
	C225.683578,283.934143 225.964844,283.497437 226.604919,283.022491 
	C227.323486,283.259308 227.683273,283.534393 228.139114,284.019287 
z"/>
<path fill="#E2E2E2" opacity="1.000000" stroke="none" 
	d="
M245.770538,281.130371 
	C246.031540,281.881165 246.028473,282.577240 246.025391,283.273315 
	C245.674973,282.767120 245.324539,282.260895 244.976379,281.470520 
	C245.154572,281.149475 245.330521,281.112579 245.770538,281.130371 
z"/>
<path fill="#D8D8D8" opacity="1.000000" stroke="none" 
	d="
M398.668488,282.084686 
	C398.812469,282.661865 398.621063,283.192291 398.183472,283.873627 
	C397.659180,283.538177 397.381012,283.051788 397.102844,282.565430 
	C397.512909,282.389587 397.923004,282.213745 398.668488,282.084686 
z"/>
<path fill="#A1A29D" opacity="1.000000" stroke="none" 
	d="
M459.725677,277.081543 
	C459.718964,277.642517 459.386597,278.134857 458.942810,278.903748 
	C459.020966,278.457825 459.210480,277.735382 459.725677,277.081543 
z"/>
<path fill="#F9F9F9" opacity="1.000000" stroke="none" 
	d="
M273.199310,287.009766 
	C273.505737,287.516785 273.448792,288.000061 273.272156,288.828430 
	C272.938660,289.343597 272.724884,289.513733 272.511139,289.683868 
	C272.341705,289.013214 272.172302,288.342560 272.055725,287.346558 
	C272.351013,287.009521 272.593506,286.997803 273.199310,287.009766 
z"/>
<path fill="#BBBBBB" opacity="1.000000" stroke="none" 
	d="
M379.714478,289.026245 
	C379.956207,289.250427 379.989777,289.667389 380.026672,290.398102 
	C379.855469,290.214264 379.680908,289.716644 379.714478,289.026245 
z"/>
<path fill="#F9F9F9" opacity="1.000000" stroke="none" 
	d="
M272.675720,282.069824 
	C272.749512,282.395294 272.534210,282.653107 272.076965,283.002502 
	C271.646240,282.887604 271.457458,282.681152 271.268677,282.474701 
	C271.641327,282.317200 272.013977,282.159698 272.675720,282.069824 
z"/>
<path fill="#E1DFD1" opacity="1.000000" stroke="none" 
	d="
M298.224609,133.258408 
	C298.474304,133.065063 298.673981,133.176773 298.941833,133.490875 
	C299.045135,133.630539 298.590820,133.801071 298.590820,133.801071 
	C298.590820,133.801071 298.209686,133.500732 298.224609,133.258408 
z"/>
<path fill="#E4E2D3" opacity="1.000000" stroke="none" 
	d="
M307.903687,202.389038 
	C308.026733,202.113525 308.277405,202.111267 308.696960,202.283112 
	C308.865143,202.371887 308.482300,202.614731 308.482300,202.614731 
	C308.482300,202.614731 308.030518,202.576965 307.903687,202.389038 
z"/>
<path fill="#A1A29D" opacity="1.000000" stroke="none" 
	d="
M447.551331,288.840149 
	C447.302094,288.762970 447.164398,288.459076 447.171661,287.931580 
	C447.432037,288.009796 447.547455,288.311646 447.551331,288.840149 
z"/>
<path fill="#040403" opacity="1.000000" stroke="none" 
	d="
M308.856598,143.297119 
	C309.017914,143.456207 309.179260,143.615295 309.660278,143.889908 
	C312.796631,147.302200 315.613312,150.598984 318.361969,154.359283 
	C318.108490,154.973328 317.923065,155.123840 317.737640,155.274368 
	C314.540283,154.885193 311.348358,154.378860 308.139862,154.229935 
	C307.644409,154.206940 306.711670,155.805405 306.666107,156.689285 
	C306.636841,157.257751 307.927124,158.473587 308.512268,158.406586 
	C316.222321,157.523621 321.217072,162.704361 326.081390,167.000183 
	C335.980469,175.742310 346.797882,179.245453 359.893433,175.389191 
	C360.548798,175.030930 360.978058,175.012924 361.994141,174.852814 
	C363.304810,174.511276 364.028656,174.311844 364.752502,174.112427 
	C366.279968,173.725388 367.807465,173.338318 369.896851,172.792313 
	C370.720276,172.491104 370.878296,172.273636 370.932770,171.980957 
	C371.987793,171.811172 373.042786,171.641388 374.252014,171.946625 
	C374.406189,172.421616 374.686768,172.667801 374.686768,172.667801 
	C374.686768,172.667801 375.050415,172.582748 375.050415,172.582748 
	C375.105530,172.835999 375.160675,173.089264 375.268890,173.905945 
	C375.468445,174.749512 375.698303,174.911270 376.011505,174.954666 
	C376.067596,175.146530 376.123688,175.338379 376.269348,175.994049 
	C376.502441,176.724609 376.724915,176.873154 377.026367,176.903503 
	C378.300934,180.235123 377.225739,181.803940 373.853973,183.472565 
	C365.124817,187.792404 356.315796,191.695236 346.488678,192.142227 
	C332.588348,192.774490 321.157471,186.527039 310.547302,178.357452 
	C309.637115,177.656647 308.832520,176.813873 307.897522,176.152008 
	C307.405182,175.803513 306.736725,175.703857 305.655701,175.314682 
	C305.294525,176.957077 305.003204,178.281876 304.725769,179.543533 
	C300.366486,177.042328 297.847626,168.744568 289.309052,174.783173 
	C288.897491,173.054916 287.684570,170.722977 288.133820,168.774185 
	C288.388214,167.670609 291.309296,166.781250 293.135162,166.511276 
	C300.219696,165.463623 303.308777,157.738297 299.283325,151.918930 
	C302.086487,149.047974 304.799347,146.269455 308.018921,143.428345 
	C308.525574,143.365723 308.856598,143.297119 308.856598,143.297119 
z"/>
<path fill="#050505" opacity="1.000000" stroke="none" 
	d="
M314.436340,144.092087 
	C313.980927,142.710480 313.828552,141.466248 313.627472,139.824020 
	C316.637115,142.106079 319.203094,144.051697 322.615967,146.639496 
	C322.615967,144.456741 323.060028,143.013214 322.533936,142.188721 
	C320.852936,139.554214 318.670471,137.242004 316.957703,134.624664 
	C315.730072,132.748672 314.969391,131.291763 312.104706,130.928406 
	C310.479858,130.722305 309.306671,126.955864 307.849670,124.397797 
	C308.368835,120.344391 310.321350,121.528603 312.289612,122.734642 
	C313.784943,123.650887 315.288696,124.553398 316.397552,125.225090 
	C320.135712,121.674675 317.820923,114.477486 325.702423,115.152016 
	C326.473572,115.461090 326.616974,115.601288 326.514648,116.014442 
	C325.049225,119.117409 326.962006,119.517181 328.997070,120.154175 
	C328.335968,121.096100 327.683655,121.699097 326.693420,122.220757 
	C324.849243,121.982338 323.342987,121.825264 321.347198,121.617142 
	C321.851379,123.878944 322.182159,125.362770 322.704620,127.706497 
	C324.509796,126.380936 325.730072,125.484901 327.323181,124.696838 
	C330.655731,124.207497 333.615387,123.610168 337.923401,122.740707 
	C336.214294,121.589424 335.141815,120.448341 333.857513,120.109116 
	C332.295502,119.696533 330.555084,119.959450 328.597504,119.585098 
	C330.114319,118.464897 331.961273,117.761658 333.722015,116.885239 
	C334.645325,116.425644 335.417572,115.662498 336.258057,115.036446 
	C336.072113,114.670006 335.886169,114.303558 335.700256,113.937119 
	C333.113190,113.937119 330.526123,113.937119 327.970825,113.968788 
	C328.002594,114.000458 328.068878,114.060928 328.068878,114.060928 
	C332.577820,110.501556 337.086731,106.942177 342.185059,102.917534 
	C344.393494,105.630737 346.908966,108.721138 349.541718,111.955635 
	C347.406708,112.928772 345.840271,113.642738 344.273865,114.356712 
	C344.342529,114.707664 344.411224,115.058617 344.479919,115.409569 
	C346.224762,115.830704 347.969604,116.251831 349.714447,116.672958 
	C349.749908,117.087296 349.785339,117.501625 349.820801,117.915955 
	C348.153839,118.272728 346.498260,118.704338 344.815948,118.960274 
	C343.671387,119.134399 342.489380,119.062515 341.324097,119.100632 
	C341.471283,120.480873 341.361145,121.955269 341.823914,123.220001 
	C342.580353,125.287193 343.709961,127.217842 344.932129,129.717468 
	C342.709778,130.170090 341.075104,130.503021 339.373383,130.849609 
	C341.343750,134.055267 343.748810,134.837845 346.432404,132.868500 
	C350.625519,129.791412 348.419128,126.659096 346.551666,122.343422 
	C347.672699,122.805626 349.595917,123.055130 349.784027,123.764694 
	C350.968628,128.232300 352.008759,132.822479 348.279053,136.596390 
	C346.532593,136.020294 345.303741,135.743210 344.069305,135.715805 
	C340.999908,135.647690 337.927979,135.693390 334.535522,135.693390 
	C335.305664,132.690918 335.728821,131.041138 336.323853,128.721329 
	C333.895813,130.162033 331.688019,130.782227 330.681854,132.234756 
	C329.260040,134.287430 328.636566,136.927261 327.873535,139.378860 
	C327.673553,140.021408 328.218201,140.895721 328.420898,141.663605 
	C328.794495,141.291321 329.168121,140.919037 329.541718,140.546753 
	C329.930511,139.236740 330.319305,137.926727 330.845520,136.153580 
	C336.783447,139.982880 342.456512,141.421616 348.137085,136.759277 
	C346.387146,139.957626 345.374603,144.545990 342.684875,145.972946 
	C339.857300,147.473022 335.424438,145.947174 331.006287,145.706116 
	C331.827759,147.186310 332.667755,148.699890 333.724579,150.604218 
	C332.796539,151.868027 331.579376,153.525528 329.437500,156.442337 
	C328.868744,153.793594 328.551819,152.317566 328.192596,150.644653 
	C320.788879,155.982635 319.355499,146.623322 314.436340,144.092087 
z"/>
<path fill="#030202" opacity="1.000000" stroke="none" 
	d="
M301.084198,129.546112 
	C300.946350,129.408752 300.808472,129.271393 300.391479,129.048615 
	C294.979462,116.462799 296.925171,105.273262 306.084839,95.247849 
	C311.219971,89.627350 324.085632,86.605736 331.456421,89.576591 
	C335.540375,91.222664 339.698364,92.700783 343.709839,94.506088 
	C347.241791,96.095612 349.599731,98.728668 348.989807,103.514542 
	C346.887543,101.563271 344.744965,99.653275 342.694153,97.649330 
	C340.571442,95.575096 338.729553,95.049507 337.516663,98.420265 
	C334.058502,108.030869 325.780640,109.830460 317.142670,111.091812 
	C315.400116,111.346268 313.670959,111.692841 311.935638,111.996941 
	C311.900177,112.524628 311.864746,113.052315 311.829315,113.580002 
	C313.174866,114.243378 314.520416,114.906754 315.986267,115.629433 
	C315.683594,116.475853 315.298920,117.551521 314.814575,118.905983 
	C308.798492,116.087700 304.203125,116.539581 303.194458,124.625946 
	C303.866364,127.507439 304.454834,130.011093 305.192719,133.150375 
	C304.112762,132.354218 303.536957,131.929733 302.737488,131.058319 
	C302.381470,130.385452 302.193665,130.321274 301.950470,130.418823 
	C301.950470,130.418823 301.875122,130.091461 301.725555,129.918915 
	C301.475769,129.523209 301.311829,129.456451 301.084198,129.546112 
z"/>
<path fill="#050505" opacity="1.000000" stroke="none" 
	d="
M357.194458,112.250099 
	C359.448364,111.999496 361.702271,111.748894 365.378876,111.340111 
	C367.213562,108.748474 363.122375,108.735168 360.917206,107.731087 
	C367.560699,106.296570 373.676941,104.975899 379.217133,103.779617 
	C380.410675,106.787567 381.726257,110.103134 382.724487,113.719955 
	C382.003510,113.988754 381.599915,113.956284 381.014038,113.610657 
	C378.124115,112.476799 375.416473,111.656082 372.708832,110.835373 
	C372.461945,111.748749 372.215057,112.662125 371.968201,113.575500 
	C374.293152,114.092514 376.618134,114.609520 378.799347,115.526260 
	C376.563721,116.039932 374.471863,116.153870 372.379944,116.267059 
	C371.621857,120.709290 372.294342,121.128639 378.531799,121.022514 
	C380.379608,118.948349 381.615204,117.761032 382.578979,116.383537 
	C382.976868,115.814812 382.791534,114.837997 382.871460,114.046791 
	C385.008820,116.726662 387.239502,119.344383 389.131775,122.187378 
	C389.311066,122.456703 387.434296,124.213585 386.393005,125.147034 
	C384.988586,126.406006 382.987427,127.249680 382.081787,128.771225 
	C378.176178,135.332916 371.165802,139.015350 363.322052,137.567657 
	C359.188904,136.804825 357.139221,134.110306 356.223724,130.786591 
	C354.977509,126.262245 354.621124,121.492790 354.152161,116.321152 
	C354.421143,115.813873 354.722778,115.470673 354.722778,115.470673 
	C354.722778,115.470673 354.574646,115.038475 354.574646,115.038467 
	C355.426544,113.819290 356.278473,112.600121 357.315765,112.156166 
	C356.284546,115.314163 356.284546,115.314163 363.255829,117.654869 
	C364.347321,112.093040 359.686798,113.325569 357.194458,112.250099 
M364.851471,129.368439 
	C363.212036,128.550293 361.572632,127.732155 359.933197,126.914017 
	C359.507996,127.270172 359.082825,127.626335 358.657623,127.982491 
	C359.579559,129.315613 360.226624,131.048126 361.474823,131.907211 
	C365.270447,134.519577 369.037537,133.765472 372.558136,131.328369 
	C372.588654,130.787750 372.619202,130.247116 372.649719,129.706497 
	C370.334259,129.588882 368.018829,129.471268 364.851471,129.368439 
z"/>
<path fill="#050504" opacity="1.000000" stroke="none" 
	d="
M360.176422,168.035828 
	C359.565460,168.516495 358.954468,168.997131 357.880280,169.747314 
	C357.254181,170.334564 357.091248,170.652298 356.928314,170.970016 
	C356.629181,171.103485 356.383789,171.303024 356.095520,171.787628 
	C354.709473,172.145691 353.421234,172.383820 352.130219,172.400146 
	C350.266327,172.423691 347.051361,172.801468 346.791138,172.120010 
	C346.043030,170.160736 346.045349,167.630096 346.588379,165.541183 
	C347.153168,163.368561 348.832062,161.508850 349.739166,159.390427 
	C350.100403,158.546814 349.698181,157.376266 349.643555,156.354584 
	C348.630280,156.649475 347.368134,156.664536 346.655914,157.297943 
	C345.207062,158.586502 344.055023,160.208862 342.505096,162.014771 
	C340.914246,158.781494 339.457764,155.821320 338.045502,152.950974 
	C344.559052,150.210724 350.759857,147.602066 357.449249,144.787857 
	C357.752777,146.724152 357.925079,147.345947 357.936768,147.970734 
	C358.082397,155.782333 360.096161,157.356277 367.484009,154.524109 
	C370.936981,153.200394 374.000000,150.830109 377.182892,148.843079 
	C378.902710,147.769409 381.152649,145.151260 382.036285,145.575821 
	C384.803284,146.905273 387.226746,149.167603 389.384369,151.446259 
	C390.324066,152.438660 390.292236,154.350967 390.855225,156.406235 
	C388.493988,154.540878 386.904297,152.301636 385.427887,152.373993 
	C383.683044,152.459488 381.547791,154.210510 380.449799,155.828537 
	C378.270294,159.040314 376.685913,162.655945 374.691528,166.435410 
	C372.299438,167.160355 370.071411,167.554550 367.483459,167.587494 
	C368.554169,165.643692 370.231384,164.210892 371.318970,162.420044 
	C371.930481,161.413071 371.568451,159.814865 371.645020,158.483017 
	C370.480347,158.732697 368.978790,158.610687 368.215210,159.302841 
	C366.065948,161.251114 364.220276,163.534302 362.254913,165.685455 
	C361.848297,166.111710 361.441681,166.537979 360.795471,167.212402 
	C360.312683,167.575195 360.186188,167.766953 360.176422,168.035828 
z"/>
<path fill="#030303" opacity="1.000000" stroke="none" 
	d="
M387.831787,111.293350 
	C382.695099,107.129387 384.163269,101.434578 383.658173,95.358864 
	C380.161865,97.174721 377.362518,99.295967 374.223969,100.110878 
	C368.765564,101.528114 363.114929,102.572929 357.506165,102.794701 
	C356.029999,102.853073 354.411804,99.319786 353.232819,97.889542 
	C356.403137,89.623108 363.550415,87.136658 370.441681,85.474281 
	C373.888885,84.642700 378.375977,86.598267 381.949677,88.251183 
	C385.393066,89.843811 388.270752,92.663422 391.388031,94.956207 
	C394.789337,97.457924 398.261292,108.538651 397.233917,113.104889 
	C396.615662,115.852760 396.288177,118.666061 395.765717,121.840637 
	C393.031952,118.292717 390.480072,114.980804 387.831787,111.293350 
z"/>
<path fill="#090908" opacity="1.000000" stroke="none" 
	d="
M390.382233,128.421539 
	C392.001404,126.614601 393.336639,125.043579 394.593048,123.565338 
	C395.181824,127.800545 395.496735,132.296036 396.524170,136.622299 
	C397.143463,139.230011 398.717010,141.667267 400.132751,144.017914 
	C403.024139,148.818756 403.803406,153.751053 402.194153,158.134323 
	C397.374664,153.320496 392.394012,148.342621 387.407166,143.370987 
	C387.056793,143.021713 386.672913,142.702820 386.283783,142.396255 
	C384.536652,141.019791 381.091980,138.875351 381.306244,138.409607 
	C382.626373,135.540268 384.650330,132.949493 386.704712,130.486725 
	C387.468811,129.570740 388.946228,129.249771 390.382233,128.421539 
z"/>
<path fill="#050505" opacity="1.000000" stroke="none" 
	d="
M291.333557,102.052017 
	C289.875793,94.298035 292.217102,88.982361 298.548553,85.425072 
	C302.103363,83.427826 305.692169,83.334023 308.764404,85.962006 
	C303.558655,92.131058 298.374359,98.274673 293.053986,104.579544 
	C292.760925,104.162643 292.146362,103.288361 291.333557,102.052017 
z"/>
<path fill="#050504" opacity="1.000000" stroke="none" 
	d="
M383.211761,176.702881 
	C382.098572,175.821381 381.174225,174.634720 379.966492,173.228943 
	C380.037048,169.084167 380.391022,165.158524 380.744995,161.232880 
	C381.230621,161.030609 381.716248,160.828339 382.201874,160.626068 
	C384.475677,166.093857 387.515137,163.397018 390.611908,162.040512 
	C391.883301,164.940353 393.140625,167.808167 394.724579,171.420914 
	C390.803925,173.144012 387.102264,174.770859 383.211761,176.702881 
z"/>
<path fill="#090908" opacity="1.000000" stroke="none" 
	d="
M362.820251,151.060059 
	C362.521423,148.372360 362.650360,145.702896 362.770294,143.220001 
	C367.507874,142.463593 371.665375,141.799789 375.821930,141.130981 
	C375.732330,144.928345 369.177582,150.116898 362.820251,151.060059 
z"/>
<path fill="#090908" opacity="1.000000" stroke="none" 
	d="
M337.891052,163.178619 
	C339.054993,165.525238 340.044952,167.534180 341.312988,170.107315 
	C334.113953,168.950256 330.359283,163.908524 325.623169,159.483795 
	C329.055481,159.157181 332.070496,158.870270 335.687988,158.526016 
	C336.214081,159.644821 336.965576,161.242889 337.891052,163.178619 
z"/>
<path fill="#D8D6C8" opacity="1.000000" stroke="none" 
	d="
M357.224976,112.250923 
	C359.686798,113.325569 364.347321,112.093040 363.255829,117.654869 
	C356.284546,115.314163 356.284546,115.314163 357.387207,112.562866 
	C357.273254,112.194351 357.255463,112.251747 357.224976,112.250923 
z"/>
<path fill="#050505" opacity="1.000000" stroke="none" 
	d="
M326.115845,115.109833 
	C326.407532,114.614197 326.913574,114.329620 327.744232,114.052986 
	C328.068878,114.060928 328.002594,114.000458 327.970276,114.264709 
	C327.545441,114.933136 327.152924,115.337318 326.760406,115.741493 
	C326.616974,115.601288 326.473572,115.461090 326.115845,115.109833 
z"/>
<path fill="#040403" opacity="1.000000" stroke="none" 
	d="
M318.589600,154.620529 
	C319.203674,154.886429 319.522095,155.354614 319.840485,155.822800 
	C319.245758,155.823807 318.651001,155.824814 317.896973,155.550095 
	C317.923065,155.123840 318.108490,154.973328 318.589600,154.620529 
z"/>
<path fill="#D8D6C8" opacity="1.000000" stroke="none" 
	d="
M354.418060,115.148994 
	C354.574646,115.038475 354.722778,115.470673 354.722778,115.470673 
	C354.722778,115.470673 354.421143,115.813873 354.205078,115.888672 
	C353.996124,115.696411 354.086945,115.461761 354.418060,115.148994 
z"/>
<path fill="#050504" opacity="1.000000" stroke="none" 
	d="
M364.948273,193.622345 
	C353.828033,203.742935 340.774353,204.503937 327.084991,201.769775 
	C322.014404,200.757019 317.040802,199.258575 311.644653,197.935577 
	C309.986450,197.610748 308.706543,197.331940 306.947327,196.948746 
	C307.406219,194.235153 307.850128,191.610275 308.438812,188.129364 
	C315.112976,189.892960 321.825317,190.796356 327.772797,193.428223 
	C338.529480,198.188248 349.022369,197.804306 359.817688,194.322479 
	C361.456451,193.793930 363.200745,193.592422 364.948273,193.622345 
z"/>
<path fill="#030202" opacity="1.000000" stroke="none" 
	d="
M303.077881,192.288300 
	C302.054077,193.179443 300.895996,194.208618 300.025970,194.005295 
	C295.554749,192.960312 291.157562,191.598572 287.329865,190.515884 
	C288.746490,186.642929 289.767212,183.852371 290.795258,181.041748 
	C292.979156,181.041748 295.524933,181.041748 299.553436,181.041748 
	C301.245789,183.394928 305.266846,186.331161 303.077881,192.288300 
z"/>
<path fill="#E1DFD1" opacity="1.000000" stroke="none" 
	d="
M362.623108,165.757416 
	C364.220276,163.534302 366.065948,161.251114 368.215210,159.302841 
	C368.978790,158.610687 370.480347,158.732697 371.645020,158.483017 
	C371.568451,159.814865 371.930481,161.413071 371.318970,162.420044 
	C370.231384,164.210892 368.554169,165.643692 367.089600,167.554138 
	C366.568909,167.844528 365.988983,167.962875 365.613922,167.738632 
	C364.689636,167.186020 363.859406,166.476074 362.623108,165.757416 
z"/>
<path fill="#E1DFD1" opacity="1.000000" stroke="none" 
	d="
M364.480988,173.829681 
	C364.028656,174.311844 363.304810,174.511276 362.287537,174.719513 
	C362.732544,174.334534 363.471008,173.940735 364.480988,173.829681 
z"/>
<path fill="#E1DFD1" opacity="1.000000" stroke="none" 
	d="
M360.316650,167.986481 
	C360.186188,167.766953 360.312683,167.575195 360.728973,167.507706 
	C360.789917,167.724518 360.641541,167.851929 360.316650,167.986481 
z"/>
<path fill="#E1DFD1" opacity="1.000000" stroke="none" 
	d="
M357.158875,170.861908 
	C357.091248,170.652298 357.254181,170.334564 357.695862,169.977509 
	C357.779602,170.210052 357.584534,170.481918 357.158875,170.861908 
z"/>
<path fill="#E1DFD1" opacity="1.000000" stroke="none" 
	d="
M370.757904,172.033783 
	C370.878296,172.273636 370.720276,172.491104 370.253967,172.602203 
	C370.175171,172.352264 370.353119,172.190781 370.757904,172.033783 
z"/>
<path fill="#E1DFD1" opacity="1.000000" stroke="none" 
	d="
M308.796051,143.239914 
	C308.856598,143.297119 308.525574,143.365723 308.393005,143.261108 
	C308.425690,143.082977 308.584045,143.091721 308.796051,143.239914 
z"/>
<path fill="#E1DFD1" opacity="1.000000" stroke="none" 
	d="
M374.973907,172.479340 
	C375.050415,172.582748 374.686768,172.667801 374.686768,172.667801 
	C374.686768,172.667801 374.406189,172.421616 374.451233,172.240585 
	C374.657013,172.130753 374.790710,172.236206 374.973907,172.479340 
z"/>
<path fill="#E1DFD1" opacity="1.000000" stroke="none" 
	d="
M375.970032,174.783188 
	C375.698303,174.911270 375.468445,174.749512 375.407227,174.269302 
	C375.696594,174.202850 375.841919,174.383682 375.970032,174.783188 
z"/>
<path fill="#E1DFD1" opacity="1.000000" stroke="none" 
	d="
M376.977722,176.735535 
	C376.724915,176.873154 376.502441,176.724609 376.412476,176.257492 
	C376.677643,176.175308 376.832001,176.345459 376.977722,176.735535 
z"/>
<path fill="#E1DFD1" opacity="1.000000" stroke="none" 
	d="
M302.024536,130.522491 
	C302.193665,130.321274 302.381470,130.385452 302.506348,130.772980 
	C302.338959,130.866074 302.205536,130.763260 302.024536,130.522491 
z"/>
<path fill="#E1DFD1" opacity="1.000000" stroke="none" 
	d="
M301.143738,129.642731 
	C301.311829,129.456451 301.475769,129.523209 301.559631,129.892792 
	C301.543274,130.039230 301.203308,129.739334 301.143738,129.642731 
z"/>
<path fill="#030202" opacity="1.000000" stroke="none" 
	d="
M313.280396,232.740662 
	C317.093384,238.470901 315.205566,243.789932 308.857025,245.150925 
	C305.076172,245.961487 301.142883,246.061340 296.919861,246.519592 
	C296.919861,240.751587 296.919861,235.693451 296.919861,230.016983 
	C302.363922,229.993195 307.995850,228.857468 313.280396,232.740662 
z"/>
<path fill="#000000" opacity="1.000000" stroke="none" 
	d="
M436.206116,248.355148 
	C437.852631,243.987061 439.657043,240.005783 442.017242,234.798187 
	C444.370911,239.797440 446.301117,243.897263 448.582001,248.741959 
	C444.004761,248.741959 440.184357,248.741959 436.206116,248.355148 
z"/>
<path fill="#000000" opacity="1.000000" stroke="none" 
	d="
M372.927277,286.113983 
	C373.086517,285.231750 373.220490,284.779205 373.354462,284.326691 
	C373.529114,284.335205 373.703735,284.343750 373.878357,284.352264 
	C373.878357,285.833740 373.878357,287.315216 373.878357,288.796692 
	C373.662720,288.812286 373.447113,288.827911 373.231476,288.843506 
	C373.121674,288.076904 373.011841,287.310272 372.927277,286.113983 
z"/>
<path fill="#BBBBBB" opacity="1.000000" stroke="none" 
	d="
M391.002441,286.002747 
	C391.310120,285.500854 391.615295,284.996216 391.920471,284.491547 
	C392.121399,284.672119 392.322327,284.852661 392.523254,285.033234 
	C392.200287,285.329834 391.877319,285.626465 391.274109,285.958557 
	C390.993896,285.994019 391.000000,286.000000 391.002441,286.002747 
z"/>
<path fill="#DEDBCD" opacity="1.000000" stroke="none" 
	d="
M348.103668,136.787170 
	C342.456512,141.421616 336.783447,139.982880 330.845520,136.153580 
	C330.319305,137.926727 329.930511,139.236740 329.541718,140.546753 
	C329.168121,140.919037 328.794495,141.291321 328.420898,141.663605 
	C328.218201,140.895721 327.673553,140.021408 327.873535,139.378860 
	C328.636566,136.927261 329.260040,134.287430 330.681854,132.234756 
	C331.688019,130.782227 333.895813,130.162033 336.323853,128.721329 
	C335.728821,131.041138 335.305664,132.690918 334.535522,135.693390 
	C337.927979,135.693390 340.999908,135.647690 344.069305,135.715805 
	C345.303741,135.743210 346.532593,136.020294 347.893158,136.535797 
	C348.022308,136.887833 348.070221,136.815079 348.103668,136.787170 
z"/>
<path fill="#DEDDCF" opacity="1.000000" stroke="none" 
	d="
M326.514648,116.014450 
	C327.152924,115.337318 327.545441,114.933136 327.938507,114.233032 
	C330.526123,113.937119 333.113190,113.937119 335.700256,113.937119 
	C335.886169,114.303558 336.072113,114.670006 336.258057,115.036446 
	C335.417572,115.662498 334.645325,116.425644 333.722015,116.885239 
	C331.961273,117.761658 330.114319,118.464897 328.623413,119.553772 
	C328.943634,119.867516 329.005890,119.815239 329.005890,119.815239 
	C326.962006,119.517181 325.049225,119.117409 326.514648,116.014450 
z"/>
<path fill="#E4E2D5" opacity="1.000000" stroke="none" 
	d="
M328.917725,119.898834 
	C330.555084,119.959450 332.295502,119.696533 333.857513,120.109116 
	C335.141815,120.448341 336.214294,121.589424 337.923401,122.740707 
	C333.615387,123.610168 330.655731,124.207497 327.383911,124.415543 
	C327.058319,123.451546 327.044830,122.876823 327.031372,122.302109 
	C327.683655,121.699097 328.335968,121.096100 328.997070,120.154175 
	C329.005890,119.815239 328.943634,119.867516 328.917725,119.898834 
z"/>
<path fill="#C7C9C5" opacity="1.000000" stroke="none" 
	d="
M326.693420,122.220764 
	C327.044830,122.876823 327.058319,123.451546 327.011047,124.307556 
	C325.730072,125.484901 324.509796,126.380936 322.704620,127.706497 
	C322.182159,125.362770 321.851379,123.878944 321.347198,121.617142 
	C323.342987,121.825264 324.849243,121.982338 326.693420,122.220764 
z"/>
<path fill="#C5C6BD" opacity="1.000000" stroke="none" 
	d="
M365.277405,129.361038 
	C368.018829,129.471268 370.334259,129.588882 372.649719,129.706497 
	C372.619202,130.247116 372.588654,130.787750 372.558136,131.328369 
	C369.037537,133.765472 365.270447,134.519577 361.474823,131.907211 
	C360.226624,131.048126 359.579559,129.315613 358.657623,127.982491 
	C359.082825,127.626335 359.507996,127.270172 359.933197,126.914017 
	C361.572632,127.732155 363.212036,128.550293 365.277405,129.361038 
z"/>
<path fill="#D5D3C5" opacity="1.000000" stroke="none" 
	d="
M382.898804,114.081985 
	C382.791534,114.837997 382.976868,115.814812 382.578979,116.383537 
	C381.615204,117.761032 380.379608,118.948349 378.531799,121.022514 
	C372.294342,121.128639 371.621857,120.709290 372.379944,116.267059 
	C374.471863,116.153870 376.563721,116.039932 378.995239,115.254715 
	C379.955353,114.363564 380.575836,114.143684 381.196289,113.923813 
	C381.599915,113.956284 382.003510,113.988754 382.700287,114.098480 
	C382.993439,114.175728 382.926178,114.117188 382.898804,114.081985 
z"/>
<path fill="#D8D6C8" opacity="1.000000" stroke="none" 
	d="
M381.014038,113.610657 
	C380.575836,114.143684 379.955353,114.363564 379.139008,114.854988 
	C376.618134,114.609520 374.293152,114.092514 371.968201,113.575500 
	C372.215057,112.662125 372.461945,111.748749 372.708832,110.835373 
	C375.416473,111.656082 378.124115,112.476799 381.014038,113.610657 
z"/>
</svg>